<svg width="12" height="10" viewBox="0 0 12 10" fill="none" xmlns="http://www.w3.org/2000/svg">
<path d="M6.32031 5.36133C6.32031 6.63086 6.10352 7.57422 5.66992 8.19141C5.23633 8.80859 4.55859 9.11719 3.63672 9.11719C2.72656 9.11719 2.05273 8.81641 1.61523 8.21484C1.17773 7.60938 0.951172 6.70703 0.935547 5.50781V4.06055C0.935547 2.80664 1.15234 1.875 1.58594 1.26562C2.01953 0.65625 2.69922 0.351562 3.625 0.351562C4.54297 0.351562 5.21875 0.646484 5.65234 1.23633C6.08594 1.82227 6.30859 2.72852 6.32031 3.95508V5.36133ZM5.23633 3.87891C5.23633 2.96094 5.10742 2.29297 4.84961 1.875C4.5918 1.45312 4.18359 1.24219 3.625 1.24219C3.07031 1.24219 2.66602 1.45117 2.41211 1.86914C2.1582 2.28711 2.02734 2.92969 2.01953 3.79688V5.53125C2.01953 6.45312 2.15234 7.13477 2.41797 7.57617C2.6875 8.01367 3.09375 8.23242 3.63672 8.23242C4.17188 8.23242 4.56836 8.02539 4.82617 7.61133C5.08789 7.19727 5.22461 6.54492 5.23633 5.6543V3.87891ZM11.2715 9H10.1816V1.77539L7.99609 2.57812V1.59375L11.1016 0.427734H11.2715V9Z" fill="white"/>
</svg>
