<svg width="14" height="10" viewBox="0 0 14 10" fill="none" xmlns="http://www.w3.org/2000/svg">
<path d="M6.32031 5.36133C6.32031 6.63086 6.10352 7.57422 5.66992 8.19141C5.23633 8.80859 4.55859 9.11719 3.63672 9.11719C2.72656 9.11719 2.05273 8.81641 1.61523 8.21484C1.17773 7.60938 0.951172 6.70703 0.935547 5.50781V4.06055C0.935547 2.80664 1.15234 1.875 1.58594 1.26562C2.01953 0.65625 2.69922 0.351562 3.625 0.351562C4.54297 0.351562 5.21875 0.646484 5.65234 1.23633C6.08594 1.82227 6.30859 2.72852 6.32031 3.95508V5.36133ZM5.23633 3.87891C5.23633 2.96094 5.10742 2.29297 4.84961 1.875C4.5918 1.45312 4.18359 1.24219 3.625 1.24219C3.07031 1.24219 2.66602 1.45117 2.41211 1.86914C2.1582 2.28711 2.02734 2.92969 2.01953 3.79688V5.53125C2.01953 6.45312 2.15234 7.13477 2.41797 7.57617C2.6875 8.01367 3.09375 8.23242 3.63672 8.23242C4.17188 8.23242 4.56836 8.02539 4.82617 7.61133C5.08789 7.19727 5.22461 6.54492 5.23633 5.6543V3.87891ZM13.2988 9H7.70898V8.2207L10.6621 4.93945C11.0996 4.44336 11.4004 4.04102 11.5645 3.73242C11.7324 3.41992 11.8164 3.09766 11.8164 2.76562C11.8164 2.32031 11.6816 1.95508 11.4121 1.66992C11.1426 1.38477 10.7832 1.24219 10.334 1.24219C9.79492 1.24219 9.375 1.39648 9.07422 1.70508C8.77734 2.00977 8.62891 2.43555 8.62891 2.98242H7.54492C7.54492 2.19727 7.79688 1.5625 8.30078 1.07812C8.80859 0.59375 9.48633 0.351562 10.334 0.351562C11.127 0.351562 11.7539 0.560547 12.2148 0.978516C12.6758 1.39258 12.9062 1.94531 12.9062 2.63672C12.9062 3.47656 12.3711 4.47656 11.3008 5.63672L9.01562 8.11523H13.2988V9Z" fill="white"/>
</svg>
