<svg width="244" height="18" viewBox="0 0 244 18" fill="none" xmlns="http://www.w3.org/2000/svg">
<path d="M18 9C18 13.9706 13.9706 18 9 18C4.02944 18 0 13.9706 0 9C0 4.02944 4.02944 0 9 0C13.9706 0 18 4.02944 18 9Z" fill="url(#paint0_linear)"/>
<path d="M8.32031 9.36133C8.32031 10.6309 8.10352 11.5742 7.66992 12.1914C7.23633 12.8086 6.55859 13.1172 5.63672 13.1172C4.72656 13.1172 4.05273 12.8164 3.61523 12.2148C3.17773 11.6094 2.95117 10.707 2.93555 9.50781V8.06055C2.93555 6.80664 3.15234 5.875 3.58594 5.26562C4.01953 4.65625 4.69922 4.35156 5.625 4.35156C6.54297 4.35156 7.21875 4.64648 7.65234 5.23633C8.08594 5.82227 8.30859 6.72852 8.32031 7.95508V9.36133ZM7.23633 7.87891C7.23633 6.96094 7.10742 6.29297 6.84961 5.875C6.5918 5.45312 6.18359 5.24219 5.625 5.24219C5.07031 5.24219 4.66602 5.45117 4.41211 5.86914C4.1582 6.28711 4.02734 6.92969 4.01953 7.79688V9.53125C4.01953 10.4531 4.15234 11.1348 4.41797 11.5762C4.6875 12.0137 5.09375 12.2324 5.63672 12.2324C6.17188 12.2324 6.56836 12.0254 6.82617 11.6113C7.08789 11.1973 7.22461 10.5449 7.23633 9.6543V7.87891ZM11.2852 8.20703H12.0996C12.6113 8.19922 13.0137 8.06445 13.3066 7.80273C13.5996 7.54102 13.7461 7.1875 13.7461 6.74219C13.7461 5.74219 13.248 5.24219 12.252 5.24219C11.7832 5.24219 11.4082 5.37695 11.127 5.64648C10.8496 5.91211 10.7109 6.26562 10.7109 6.70703H9.62695C9.62695 6.03125 9.87305 5.4707 10.3652 5.02539C10.8613 4.57617 11.4902 4.35156 12.252 4.35156C13.0566 4.35156 13.6875 4.56445 14.1445 4.99023C14.6016 5.41602 14.8301 6.00781 14.8301 6.76562C14.8301 7.13672 14.709 7.49609 14.4668 7.84375C14.2285 8.19141 13.9023 8.45117 13.4883 8.62305C13.957 8.77148 14.3184 9.01758 14.5723 9.36133C14.8301 9.70508 14.959 10.125 14.959 10.6211C14.959 11.3867 14.709 11.9941 14.209 12.4434C13.709 12.8926 13.0586 13.1172 12.2578 13.1172C11.457 13.1172 10.8047 12.9004 10.3008 12.4668C9.80078 12.0332 9.55078 11.4609 9.55078 10.75H10.6406C10.6406 11.1992 10.7871 11.5586 11.0801 11.8281C11.373 12.0977 11.7656 12.2324 12.2578 12.2324C12.7812 12.2324 13.1816 12.0957 13.459 11.8223C13.7363 11.5488 13.875 11.1562 13.875 10.6445C13.875 10.1484 13.7227 9.76758 13.418 9.50195C13.1133 9.23633 12.6738 9.09961 12.0996 9.0918H11.2852V8.20703Z" fill="white"/>
<defs>
<linearGradient id="paint0_linear" x1="4" y1="6.5" x2="27.5" y2="22.5" gradientUnits="userSpaceOnUse">
<stop stop-color="#E96168"/>
<stop offset="1" stop-color="#D02380" stop-opacity="0"/>
</linearGradient>
</defs>
</svg>
