<svg width="13" height="10" viewBox="0 0 13 10" fill="none" xmlns="http://www.w3.org/2000/svg">
<path d="M6.32031 5.36133C6.32031 6.63086 6.10352 7.57422 5.66992 8.19141C5.23633 8.80859 4.55859 9.11719 3.63672 9.11719C2.72656 9.11719 2.05273 8.81641 1.61523 8.21484C1.17773 7.60938 0.951172 6.70703 0.935547 5.50781V4.06055C0.935547 2.80664 1.15234 1.875 1.58594 1.26562C2.01953 0.65625 2.69922 0.351562 3.625 0.351562C4.54297 0.351562 5.21875 0.646484 5.65234 1.23633C6.08594 1.82227 6.30859 2.72852 6.32031 3.95508V5.36133ZM5.23633 3.87891C5.23633 2.96094 5.10742 2.29297 4.84961 1.875C4.5918 1.45312 4.18359 1.24219 3.625 1.24219C3.07031 1.24219 2.66602 1.45117 2.41211 1.86914C2.1582 2.28711 2.02734 2.92969 2.01953 3.79688V5.53125C2.01953 6.45312 2.15234 7.13477 2.41797 7.57617C2.6875 8.01367 3.09375 8.23242 3.63672 8.23242C4.17188 8.23242 4.56836 8.02539 4.82617 7.61133C5.08789 7.19727 5.22461 6.54492 5.23633 5.6543V3.87891ZM9.28516 4.20703H10.0996C10.6113 4.19922 11.0137 4.06445 11.3066 3.80273C11.5996 3.54102 11.7461 3.1875 11.7461 2.74219C11.7461 1.74219 11.248 1.24219 10.252 1.24219C9.7832 1.24219 9.4082 1.37695 9.12695 1.64648C8.84961 1.91211 8.71094 2.26562 8.71094 2.70703H7.62695C7.62695 2.03125 7.87305 1.4707 8.36523 1.02539C8.86133 0.576172 9.49023 0.351562 10.252 0.351562C11.0566 0.351562 11.6875 0.564453 12.1445 0.990234C12.6016 1.41602 12.8301 2.00781 12.8301 2.76562C12.8301 3.13672 12.709 3.49609 12.4668 3.84375C12.2285 4.19141 11.9023 4.45117 11.4883 4.62305C11.957 4.77148 12.3184 5.01758 12.5723 5.36133C12.8301 5.70508 12.959 6.125 12.959 6.62109C12.959 7.38672 12.709 7.99414 12.209 8.44336C11.709 8.89258 11.0586 9.11719 10.2578 9.11719C9.45703 9.11719 8.80469 8.90039 8.30078 8.4668C7.80078 8.0332 7.55078 7.46094 7.55078 6.75H8.64062C8.64062 7.19922 8.78711 7.55859 9.08008 7.82812C9.37305 8.09766 9.76562 8.23242 10.2578 8.23242C10.7812 8.23242 11.1816 8.0957 11.459 7.82227C11.7363 7.54883 11.875 7.15625 11.875 6.64453C11.875 6.14844 11.7227 5.76758 11.418 5.50195C11.1133 5.23633 10.6738 5.09961 10.0996 5.0918H9.28516V4.20703Z" fill="white"/>
</svg>
