<svg width="244" height="18" viewBox="0 0 244 18" fill="none" xmlns="http://www.w3.org/2000/svg">
<path d="M18 9C18 13.9706 13.9706 18 9 18C4.02944 18 0 13.9706 0 9C0 4.02944 4.02944 0 9 0C13.9706 0 18 4.02944 18 9Z" fill="url(#paint0_linear)"/>
<path d="M8.32031 9.36133C8.32031 10.6309 8.10352 11.5742 7.66992 12.1914C7.23633 12.8086 6.55859 13.1172 5.63672 13.1172C4.72656 13.1172 4.05273 12.8164 3.61523 12.2148C3.17773 11.6094 2.95117 10.707 2.93555 9.50781V8.06055C2.93555 6.80664 3.15234 5.875 3.58594 5.26562C4.01953 4.65625 4.69922 4.35156 5.625 4.35156C6.54297 4.35156 7.21875 4.64648 7.65234 5.23633C8.08594 5.82227 8.30859 6.72852 8.32031 7.95508V9.36133ZM7.23633 7.87891C7.23633 6.96094 7.10742 6.29297 6.84961 5.875C6.5918 5.45312 6.18359 5.24219 5.625 5.24219C5.07031 5.24219 4.66602 5.45117 4.41211 5.86914C4.1582 6.28711 4.02734 6.92969 4.01953 7.79688V9.53125C4.01953 10.4531 4.15234 11.1348 4.41797 11.5762C4.6875 12.0137 5.09375 12.2324 5.63672 12.2324C6.17188 12.2324 6.56836 12.0254 6.82617 11.6113C7.08789 11.1973 7.22461 10.5449 7.23633 9.6543V7.87891ZM14.2852 10.1348H15.4688V11.0195H14.2852V13H13.1953V11.0195H9.31055V10.3809L13.1309 4.46875H14.2852V10.1348ZM10.541 10.1348H13.1953V5.95117L13.0664 6.18555L10.541 10.1348Z" fill="white"/>
<defs>
<linearGradient id="paint0_linear" x1="4" y1="6.5" x2="27.5" y2="22.5" gradientUnits="userSpaceOnUse">
<stop stop-color="#E96168"/>
<stop offset="1" stop-color="#D02380" stop-opacity="0"/>
</linearGradient>
</defs>
</svg>
