<svg width="14" height="14" viewBox="0 0 14 14" fill="none" xmlns="http://www.w3.org/2000/svg">
<mask id="mask0" mask-type="alpha" maskUnits="userSpaceOnUse" x="0" y="0" width="14" height="14">
<rect width="14" height="14" fill="#C4C4C4"/>
</mask>
<g mask="url(#mask0)">
<path d="M5.23103 5.53397H5.73103V5.03397V3.44542C5.73103 2.513 6.0387 1.78839 6.54534 1.29655C7.0534 0.803319 7.80722 0.500078 8.77954 0.5C8.77966 0.5 8.77979 0.5 8.77991 0.5L10.5 0.502612V2.21113L9.40582 2.2115C9.40577 2.2115 9.40571 2.2115 9.40565 2.2115C8.92687 2.21152 8.47922 2.29383 8.17899 2.61557C7.88434 2.93134 7.85165 3.35496 7.85165 3.68733V5.03397V5.53397H8.35165H10.41L10.4093 7.40671H8.35165H7.85165V7.90671V13.5H5.73103V7.90671V7.40671H5.23103H3.5V5.53397H5.23103ZM10.6984 2.21106H10.6983H10.6984Z" stroke="#FFFCFE"/>
</g>
</svg>
