<svg width="88" height="39" viewBox="0 0 88 39" fill="none" xmlns="http://www.w3.org/2000/svg">
<g clip-path="url(#clip0)">
<path d="M55.4495 21.6618C55.4241 12.8027 62.5226 5.63231 71.3408 5.61131C80.4121 5.59031 87.6746 12.7355 87.6371 21.6407C87.6032 30.4074 80.4038 37.6114 71.6106 37.687C62.7502 37.7584 55.4747 30.546 55.4495 21.6618ZM78.123 16.075C78.123 18.4861 78.1989 20.8259 78.0974 23.1614C78.0305 24.7576 76.9724 25.6775 75.5896 25.6061C73.9922 25.5263 73.832 24.3585 73.8151 23.1656C73.7814 20.8301 73.8067 18.4945 73.8067 16.0497C72.6222 16.0497 71.6653 16.0497 70.582 16.0497C70.582 18.8011 70.5188 21.4685 70.5989 24.1275C70.6916 27.3158 73.3683 28.9582 76.3487 27.7022C76.989 27.4333 77.5669 27.0091 78.3251 26.568C78.2071 28.2441 79.3915 27.9248 80.2978 27.8282C80.6901 27.7862 81.356 27.3074 81.3605 27.0175C81.4319 23.384 81.4071 19.7505 81.4071 16.0204C80.6525 15.9868 80.1167 15.9364 79.5817 15.9406C79.1556 15.9489 78.7302 16.0162 78.123 16.075ZM61.7597 27.782C62.2528 27.824 62.5689 27.866 62.8893 27.8702C64.9463 27.9206 64.9421 27.9206 64.9548 25.8329C64.9632 24.5224 64.959 23.216 65.0095 21.9054C65.1318 18.9188 65.566 18.5365 68.5756 18.7591C68.8496 17.9736 69.132 17.1671 69.4144 16.3522C67.585 15.2138 66.1224 15.6213 64.8409 17.0831C64.3857 15.7977 63.8546 15.6591 61.7597 16.1968C61.7597 19.9941 61.7597 23.8041 61.7597 27.782Z" fill="#A183A6"/>
<path d="M49.6419 37.0819C47.5301 37.0819 45.414 37.0819 43.1125 37.0819C43.1125 35.032 43.1252 33.0746 43.1083 31.1171C43.0831 27.5634 43.0831 24.0097 42.9861 20.456C42.9144 17.8475 42.0124 16.6629 39.9638 16.2051C37.7761 15.7136 35.2512 16.7259 34.4419 18.7632C33.8517 20.2502 33.5441 21.9262 33.4935 23.5309C33.3628 27.7902 33.4386 32.0581 33.4302 36.3258C33.4302 36.5359 33.3838 36.7459 33.3459 37.0609C31.2004 37.0609 29.097 37.0609 26.884 37.0609C26.884 24.9675 26.884 12.9118 26.884 0.742676C28.9916 0.742676 31.0992 0.742676 33.3965 0.742676C33.3965 5.2289 33.3965 9.72775 33.3965 13.9157C35.5715 12.937 37.6159 11.576 39.85 11.1013C45.0558 9.99653 49.3174 13.1218 49.5702 18.3725C49.8696 24.5306 49.6419 30.7139 49.6419 37.0819Z" fill="#A183A6"/>
<path d="M0.470093 0.69696C2.70415 0.69696 4.77383 0.69696 7.02475 0.69696C7.02475 5.24619 7.02475 9.74505 7.02475 14.6345C9.03962 12.6896 10.966 11.3749 13.4529 11.0094C18.8905 10.2113 23.0257 13.2903 23.2112 18.7385C23.4177 24.7915 23.2575 30.8529 23.2575 37.0446C21.1668 37.0446 19.0592 37.0446 16.7408 37.0446C16.7155 36.4985 16.6692 35.9231 16.6692 35.3518C16.6481 30.4833 16.6734 25.619 16.6102 20.7506C16.5722 17.8395 15.4847 16.4576 13.1958 16.1341C10.751 15.7896 8.42001 17.1422 7.67391 19.545C7.2903 20.7799 7.11327 22.1157 7.08798 23.4095C7.0121 27.4001 7.05425 31.3948 7.05425 35.3854C7.05425 35.9189 7.05425 36.4523 7.05425 37.0824C4.78647 37.0824 2.67887 37.0824 0.470093 37.0824C0.470093 24.947 0.470093 12.8912 0.470093 0.69696Z" fill="#A183A6"/>
</g>
<defs>
<clipPath id="clip0">
<rect width="87.9264" height="38.1939" fill="white"/>
</clipPath>
</defs>
</svg>
