<svg width="14" height="15" viewBox="0 0 14 15" fill="none" xmlns="http://www.w3.org/2000/svg">
<mask id="mask0" mask-type="alpha" maskUnits="userSpaceOnUse" x="0" y="0" width="14" height="15">
<rect y="0.0203819" width="14" height="14" fill="#C4C4C4"/>
</mask>
<g mask="url(#mask0)">
</g>
<g clip-path="url(#clip0)">
<path fill-rule="evenodd" clip-rule="evenodd" d="M4.12449 0.0203819H10.0285C12.0336 0.0203819 13.6649 1.75359 13.6648 3.88387V10.1569C13.6648 12.2872 12.0336 14.0204 10.0285 14.0204H4.12449C2.11952 14.0204 0.488342 12.2873 0.488342 10.1569V3.88387C0.488342 1.75359 2.11952 0.0203819 4.12449 0.0203819ZM10.0287 12.7781C11.3891 12.7781 12.4959 11.6023 12.4959 10.1568L12.4958 3.88382C12.4958 2.43845 11.389 1.26247 10.0286 1.26247H4.12456C2.76422 1.26247 1.65749 2.43845 1.65749 3.88382V10.1568C1.65749 11.6023 2.76422 12.7782 4.12456 12.7781H10.0287Z" fill="white"/>
<path fill-rule="evenodd" clip-rule="evenodd" d="M3.68182 7.02059C3.68182 5.03141 5.20488 3.41314 7.07703 3.41314C8.94915 3.41314 10.4722 5.03141 10.4722 7.02059C10.4722 9.00969 8.94915 10.6278 7.07703 10.6278C5.20488 10.6278 3.68182 9.00969 3.68182 7.02059ZM4.85026 7.02039C4.85026 8.32456 5.84897 9.38551 7.07643 9.38551C8.30392 9.38551 9.30261 8.32456 9.30261 7.02039C9.30261 5.71613 8.304 4.65509 7.07643 4.65509C5.84889 4.65509 4.85026 5.71613 4.85026 7.02039Z" fill="white"/>
<path fill-rule="evenodd" clip-rule="evenodd" d="M10.6141 2.35976C10.3889 2.35976 10.1676 2.45665 10.0086 2.62641C9.84874 2.79535 9.75684 3.03053 9.75684 3.27067C9.75684 3.51008 9.84882 3.74518 10.0086 3.91494C10.1675 4.08387 10.3889 4.18158 10.6141 4.18158C10.8402 4.18158 11.0607 4.08387 11.2205 3.91494C11.3803 3.74518 11.4715 3.51 11.4715 3.27067C11.4715 3.03053 11.3803 2.79535 11.2205 2.62641C11.0616 2.45665 10.8402 2.35976 10.6141 2.35976Z" fill="white"/>
</g>
<defs>
<clipPath id="clip0">
<rect width="14" height="14" fill="white" transform="translate(0 0.0203819)"/>
</clipPath>
</defs>
</svg>
