<svg width="14" height="14" viewBox="0 0 14 14" fill="none" xmlns="http://www.w3.org/2000/svg">
<mask id="mask0" mask-type="alpha" maskUnits="userSpaceOnUse" x="0" y="0" width="14" height="14">
<rect width="14" height="14" fill="#C4C4C4"/>
</mask>
<g mask="url(#mask0)">
</g>
<path fill-rule="evenodd" clip-rule="evenodd" d="M4.12455 0H10.0286C12.0337 0 13.6649 1.73321 13.6649 3.86349V10.1365C13.6649 12.2668 12.0337 14 10.0286 14H4.12455C2.11958 14 0.488403 12.2669 0.488403 10.1365V3.86349C0.488403 1.73321 2.11958 0 4.12455 0ZM10.0287 12.7578C11.3891 12.7578 12.4959 11.5819 12.4959 10.1364L12.4959 3.86344C12.4959 2.41807 11.389 1.24209 10.0286 1.24209H4.12462C2.76428 1.24209 1.65755 2.41807 1.65755 3.86344V10.1364C1.65755 11.5819 2.76428 12.7579 4.12462 12.7578H10.0287Z" fill="white"/>
<path fill-rule="evenodd" clip-rule="evenodd" d="M3.68176 7.00015C3.68176 5.01097 5.20482 3.3927 7.07697 3.3927C8.94909 3.3927 10.4721 5.01097 10.4721 7.00015C10.4721 8.98925 8.94909 10.6074 7.07697 10.6074C5.20482 10.6074 3.68176 8.98925 3.68176 7.00015ZM4.8502 6.99995C4.8502 8.30412 5.84891 9.36507 7.07637 9.36507C8.30386 9.36507 9.30255 8.30412 9.30255 6.99995C9.30255 5.69569 8.30394 4.63465 7.07637 4.63465C5.84883 4.63465 4.8502 5.69569 4.8502 6.99995Z" fill="white"/>
<path fill-rule="evenodd" clip-rule="evenodd" d="M10.6141 2.33936C10.3889 2.33936 10.1676 2.43624 10.0086 2.606C9.84874 2.77494 9.75684 3.01012 9.75684 3.25027C9.75684 3.48967 9.84882 3.72477 10.0086 3.89453C10.1675 4.06346 10.3889 4.16118 10.6141 4.16118C10.8402 4.16118 11.0607 4.06346 11.2205 3.89453C11.3803 3.72477 11.4715 3.48959 11.4715 3.25027C11.4715 3.01012 11.3803 2.77494 11.2205 2.606C11.0616 2.43624 10.8402 2.33936 10.6141 2.33936Z" fill="white"/>
</svg>
