<svg width="120" height="70" viewBox="0 0 120 70" fill="none" xmlns="http://www.w3.org/2000/svg">
<mask id="mask0" mask-type="alpha" maskUnits="userSpaceOnUse" x="0" y="0" width="120" height="70">
<rect width="120" height="70" fill="#C4C4C4"/>
</mask>
<g mask="url(#mask0)">
</g>
<path d="M72.0602 25.744C71.6471 26.0169 71.3039 26.2197 70.9859 26.4576C69.0881 27.8759 67.301 29.4229 65.6609 31.1346C65.5383 31.2624 65.4508 31.5704 65.5179 31.7147C66.5961 34.0346 66.3152 36.2991 65.2496 38.5196C64.5292 40.0208 63.5471 41.3251 62.0684 42.1614C61.4519 42.5095 60.8103 42.8282 60.0489 42.5124C59.2615 42.1848 58.8949 41.407 59.1175 40.4205C59.7009 37.8402 60.9337 35.5904 62.5895 33.556C63.0795 32.9545 63.5958 32.3726 64.0692 31.7585C64.1538 31.6493 64.1636 31.3657 64.0819 31.2633C63.5024 30.5341 62.9268 29.7953 62.2793 29.1285C61.3431 28.1644 60.5721 27.1507 60.7791 25.707C60.9881 24.2478 61.7553 23.077 62.7839 22.0711C63.975 20.9052 65.3021 19.9031 66.9073 19.4206C67.5732 19.2198 68.3481 19.2783 69.0569 19.3621C69.4527 19.4089 69.5975 19.8787 69.6257 20.293C69.6685 20.9061 69.3204 21.5369 68.7079 21.8498C68.7351 21.6392 68.7828 21.4793 68.7711 21.3234C68.7458 20.9851 68.7886 20.5747 68.6116 20.3389C68.5105 20.2053 67.9884 20.2686 67.7288 20.3954C65.4518 21.5017 63.6726 23.1316 62.5545 25.4448C62.2716 26.0307 62.1967 26.5912 62.5836 27.1448C63.3887 28.296 64.2034 29.4405 65.058 30.6512C65.3672 30.3509 65.6793 30.0575 65.9807 29.7543C67.6889 28.0367 69.5528 26.5161 71.6266 25.2596C71.7375 25.1923 71.857 25.0695 71.963 25.0792C72.56 25.1348 72.6241 24.6854 72.8058 24.2877C73.8276 22.0496 74.8633 19.8183 75.9178 17.5958C76.5178 16.3315 77.1636 15.0896 77.8429 13.7288C77.2553 13.7659 76.7658 13.7941 76.2771 13.8292C74.3891 13.9627 72.4988 14.0739 70.6135 14.2416C69.3447 14.3546 68.0817 14.5418 66.8178 14.7114C65.5724 14.8781 64.3327 15.0964 63.0834 15.229C62.3863 15.3031 61.7951 14.9394 61.3012 14.4755C60.7772 13.9832 60.9522 12.9938 61.6308 12.5259C62.1783 12.1477 62.7975 11.9157 63.4596 12.0151C63.7367 12.056 63.9769 12.3338 64.2365 12.5016C64.3658 12.5853 64.5068 12.7433 64.6293 12.7306C69.0705 12.2959 73.5236 12.33 77.9767 12.3719C78.3898 12.3758 78.6436 12.2793 78.8524 11.8757C79.4938 10.6426 80.1964 9.44073 80.8705 8.22317C80.9615 8.06042 81.0233 7.88104 81.0051 7.65777C80.7222 8.08382 80.4429 8.5117 80.1542 8.93381C80.0996 9.01373 80.0065 9.06834 79.9316 9.1336C79.8902 9.02642 79.7855 8.8948 79.8167 8.8178C79.9484 8.4942 80.096 8.17249 80.28 7.87616C81.312 6.21024 82.3564 4.55213 83.3985 2.89206C83.4589 2.79556 83.5229 2.70101 83.5942 2.61327C83.7709 2.39589 83.9949 2.12295 84.2647 2.35983C84.4225 2.49825 84.5302 2.86964 84.4604 3.0646C84.0349 4.24897 83.6 5.43529 83.0771 6.57871C82.2225 8.44644 81.2967 10.282 80.4022 12.1311C80.3818 12.1731 80.376 12.2218 80.3418 12.3465C81.0953 12.4089 81.8276 12.4869 82.5615 12.5279C85.3905 12.6868 88.2124 12.9256 90.9891 13.5153C92.9767 13.9374 94.952 14.415 96.9222 14.9122C97.5113 15.0614 98.0742 15.3352 98.6255 15.6023C99.0109 15.7895 99.3069 16.0673 99.2495 16.5917C99.1956 17.0791 98.8807 17.2624 98.4931 17.356C97.3796 17.625 96.2589 17.8629 95.1425 18.1212C94.5775 18.2518 94.016 18.4 93.4531 18.5393C93.3287 18.5705 93.1905 18.6417 93.0793 18.6134C92.88 18.5618 92.6975 18.4478 92.5076 18.36C92.6575 18.2206 92.7862 18.0033 92.9607 17.9555C94.64 17.4915 96.328 17.0587 98.0116 16.6103C98.2022 16.5596 98.3811 16.4699 98.5658 16.3978C98.5724 16.3324 98.5789 16.2671 98.5854 16.2019C98.0058 15.9981 97.4378 15.7407 96.8429 15.6014C94.8298 15.1315 92.8225 14.5935 90.7833 14.2893C88.6596 13.9734 86.5033 13.8663 84.3564 13.7317C83 13.6469 81.6371 13.6859 80.2771 13.6518C79.8742 13.642 79.6335 13.7668 79.456 14.1587C78.2349 16.8696 76.936 19.5463 75.7673 22.2796C74.5425 25.1465 73.368 28.0387 72.3004 30.967C71.544 33.0423 70.9791 35.1907 70.3763 37.3197C70.0068 38.6258 69.6656 39.9467 69.4206 41.2802C69.0667 43.2074 68.7905 45.1501 68.5202 47.0919C68.1887 49.4763 68.1138 51.8752 68.2092 54.279C68.2208 54.5656 68.1236 54.6739 67.8659 54.6709C67.5927 54.668 67.2291 54.8025 67.1669 54.3716C67.0356 53.4583 66.8694 52.542 66.8402 51.6237C66.7527 48.829 66.9287 46.042 67.2874 43.2688C67.4576 41.9519 67.5772 40.6222 67.863 39.3297C68.3151 37.2797 68.7954 35.2268 69.4322 33.2285C70.1974 30.8305 71.1395 28.49 72.0019 26.1233C72.0388 26.0403 72.034 25.9439 72.0602 25.744ZM64.6818 32.1592C64.4834 32.3804 64.2753 32.6007 64.079 32.8317C62.5321 34.6487 61.0971 36.5457 60.1967 38.7789C59.9167 39.473 59.7087 40.2343 59.662 40.9761C59.6008 41.9519 60.3669 42.3944 61.2614 42.0006C61.5249 41.8846 61.7893 41.7491 62.0188 41.5756C63.4451 40.5004 64.4903 39.1269 65.0882 37.4396C65.725 35.644 65.8728 33.866 64.6818 32.1592Z" fill="#A183A6"/>
<path d="M108.519 25.4678C108.476 25.6374 108.473 25.8314 108.384 25.9717C106.823 28.4506 105.292 30.95 103.665 33.386C102.544 35.0684 101.309 36.6779 100.081 38.2863C99.584 38.9374 99.0226 39.5622 98.3942 40.0837C97.1331 41.1317 95.8596 40.6394 95.5098 39.0447C95.2589 37.9022 95.28 36.7607 95.4611 35.6163C95.6269 34.5616 95.7236 33.4883 95.9905 32.4599C96.48 30.5835 97.072 28.7333 97.6233 26.8734C97.7076 26.5887 97.8 26.3061 97.8895 26.0234C97.8393 25.9795 97.7884 25.9357 97.7382 25.8918C96.7716 26.6628 95.7658 27.39 94.848 28.2147C93.488 29.4361 92.1884 30.7268 90.8647 31.9901C90.264 32.5643 90.1862 33.3655 89.9644 34.1034C89.2902 36.3483 88.696 38.6206 87.9251 40.8314C87.1295 43.1134 85.8124 45.1293 84.2044 46.9219C83.4916 47.7163 82.6371 48.3996 81.7731 49.0323C81.3651 49.3316 80.7935 49.4437 80.2771 49.547C79.7753 49.6474 79.2807 49.2194 79.3484 48.6785C79.4538 47.8362 79.5891 46.9657 79.9076 46.1879C80.9905 43.5432 82.4298 41.0878 84.0793 38.7561C85.5222 36.7169 87.1185 34.8062 88.7658 32.9298C89.224 32.4083 89.4524 31.6674 89.7229 31.0017C90.5178 29.0394 91.2371 27.045 92.0756 25.1022C92.5862 23.9179 93.2618 22.8047 93.8626 21.6583C93.8975 21.592 93.9185 21.5189 93.8676 21.3882C93.1091 22.1935 92.376 23.0249 91.5862 23.7979C90.2342 25.1217 88.8582 26.424 87.4647 27.7049C86.9782 28.1524 86.3324 28.4195 85.7265 28.0305C85.1411 27.6542 85.1833 26.9709 85.2742 26.3461C85.4691 25.0116 85.9869 23.7892 86.5927 22.5999C87.4778 20.8619 88.4829 19.1989 89.7505 17.7114C90.0291 17.3848 90.3855 17.1138 90.7455 16.8759C90.8865 16.7833 91.1927 16.7775 91.3164 16.873C91.4204 16.954 91.4444 17.2717 91.3745 17.4238C91.0364 18.1578 90.6669 18.8782 90.2756 19.5859C90.2167 19.6941 89.9913 19.7107 89.808 19.7175C88.3382 21.8786 87.0029 24.146 86.368 26.7516C86.3316 26.9046 86.3862 27.0801 86.3978 27.2448C86.5636 27.2048 86.7658 27.2136 86.8895 27.1181C87.7702 26.4367 88.6815 25.7856 89.4938 25.0281C90.9164 23.7034 92.2778 22.3133 93.6575 20.9437C94.2836 20.3228 94.8902 19.6824 95.5084 19.0537C95.6786 18.8811 95.848 18.7047 96.0371 18.5565C96.1084 18.501 96.2996 18.4765 96.3295 18.5166C96.3906 18.6004 96.4255 18.7544 96.3884 18.847C96.3055 19.0556 96.1811 19.2496 96.0611 19.4416C94.6196 21.7372 93.4844 24.185 92.4778 26.6969C91.9775 27.9456 91.4836 29.1973 90.9898 30.4489C90.9804 30.4724 91.0051 30.5094 91.0349 30.6098C91.1549 30.5162 91.2596 30.4411 91.3571 30.3573C92.9076 29.0169 94.432 27.6464 96.0189 26.351C96.5956 25.8801 97.3266 25.6052 97.9673 25.2085C98.1549 25.0915 98.3302 24.8877 98.4167 24.6831C99.4342 22.289 100.377 19.8617 101.451 17.494C103.081 13.899 104.741 10.3107 106.993 7.0501C107.599 6.17473 108.329 5.38029 109.057 4.60045C109.437 4.19299 109.91 3.85766 110.543 3.88886C111.288 3.9259 111.668 4.18714 111.887 4.91043C112.209 5.97685 112.026 7.03255 111.788 8.08242C111.231 10.533 109.844 12.5586 108.381 14.5169C106.221 17.4101 103.978 20.241 101.763 23.0932C101.386 23.5786 100.999 24.0621 100.569 24.5008C99.72 25.3693 99.1942 26.3948 98.9142 27.5684C98.3913 29.7578 97.7775 31.9277 97.3469 34.1346C97.0575 35.6211 97.0167 37.1555 96.8647 38.6694C96.8582 38.7337 96.8451 38.8068 96.8684 38.8633C96.9746 39.1236 97.032 39.4657 97.2284 39.6032C97.3455 39.6841 97.7498 39.5008 97.9186 39.3303C98.6618 38.5855 99.3891 37.8232 100.079 37.0307C102.865 33.8315 105.177 30.289 107.436 26.7096C107.719 26.2622 108.037 25.8362 108.34 25.4005C108.399 25.4229 108.458 25.4453 108.519 25.4678ZM100.063 23.9802C100.106 24.0027 100.15 24.0251 100.193 24.0475C100.519 23.6537 100.873 23.2804 101.165 22.8612C103.28 19.8179 105.396 16.7736 107.483 13.7118C108.743 11.8636 109.905 9.95397 110.607 7.80949C110.895 6.93215 111.137 6.03924 111.03 5.09369C110.961 4.4981 110.611 4.27779 110.095 4.56243C109.803 4.72425 109.517 4.92895 109.287 5.1707C107.876 6.64556 106.799 8.35826 105.867 10.1597C104.105 13.5666 102.58 17.0807 101.237 20.6728C100.827 21.7675 100.453 22.8768 100.063 23.9802ZM88.6095 34.7205C88.5811 34.7058 88.5527 34.6922 88.5251 34.6776C88.4451 34.7468 88.3549 34.8072 88.2887 34.8872C85.8684 37.7871 83.5905 40.7876 81.7913 44.1242C81.1542 45.3037 80.5142 46.4891 80.2895 47.8353C80.2502 48.0741 80.2975 48.3275 80.3055 48.5741C80.5542 48.4864 80.8044 48.3996 81.0524 48.309C81.0815 48.2983 81.1025 48.2691 81.1287 48.2505C82.9418 46.9434 84.1884 45.1429 85.3345 43.2781C86.8225 40.8577 87.7273 38.1917 88.424 35.4496C88.4858 35.2069 88.5484 34.9632 88.6095 34.7205Z" fill="#A183A6"/>
<path d="M37.6229 40.9716C38.4406 40.4617 39.1484 40.0162 39.8611 39.5786C42.3248 38.0648 44.9237 36.8306 47.7218 36.1064C49.7441 35.5829 51.8179 35.2954 53.9141 35.7067C54.2573 35.774 54.5976 35.9075 54.9077 36.0713C55.0234 36.1327 55.0925 36.3627 55.0964 36.5187C55.0973 36.5782 54.8338 36.7234 54.7288 36.6941C51.0381 35.6648 47.6703 36.8063 44.3588 38.2538C43.2805 38.7246 42.2237 39.2598 41.2018 39.8437C39.9495 40.5582 38.743 41.3546 37.518 42.1179C37.0746 42.3937 36.7965 42.7944 36.6205 43.2857C36.2997 44.1825 35.9643 45.0745 35.622 45.9635C35.3964 46.5493 35.1524 47.1283 34.9084 47.7073C34.7383 48.1109 33.8476 48.3731 33.5394 48.0768C33.416 47.9588 33.3644 47.6839 33.3956 47.4997C33.52 46.7666 33.6902 46.0414 33.8438 45.3133C33.8719 45.1807 33.905 45.0501 33.8458 44.859C33.1039 45.4517 32.3718 46.058 31.6163 46.6351C30.7413 47.3028 29.8556 47.9569 28.9562 48.5914C28.6996 48.7728 28.3923 48.9093 28.0871 48.9872C27.9033 49.034 27.6213 48.9892 27.4959 48.8683C27.3977 48.7737 27.3977 48.454 27.4823 48.3117C27.9703 47.4938 28.439 46.6526 29.0252 45.9059C29.9936 44.6728 31.0282 43.4914 32.0733 42.3216C32.3903 41.9668 32.8249 41.7124 33.2196 41.4336C33.8107 41.0154 34.4194 41.1977 35.0494 41.4697C35.5258 40.1985 35.9691 38.9567 36.4562 37.7323C37.4693 35.1823 38.4922 32.6371 39.5364 30.0997C39.9554 29.083 40.4454 28.0956 40.8946 27.0906C41.9077 24.8251 42.8848 22.5422 43.9358 20.2943C44.9674 18.0864 46.0679 15.9116 47.1423 13.7242C48.204 11.5631 49.2511 9.39421 50.342 7.24676C51.3687 5.227 52.444 3.23258 53.496 1.22549C53.5709 1.0822 53.6282 0.929152 53.7002 0.78391C53.9676 0.24193 54.3575 0.0245513 54.9117 0.219509C55.073 0.276046 55.2704 0.637693 55.2295 0.803408C55.0021 1.72068 54.8027 2.66623 54.4158 3.52014C53.0741 6.47765 51.6614 9.40303 50.2701 12.3381C49.3629 14.2516 48.4451 16.1602 47.5361 18.0718C47.1122 18.9618 46.6834 19.8498 46.2799 20.7486C44.7496 24.1545 43.2018 27.5526 41.7113 30.9761C40.3394 34.1275 39.0317 37.3064 37.7007 40.4754C37.6521 40.5845 37.6599 40.7181 37.6229 40.9716ZM28.8678 47.4656C28.9173 47.5143 28.9669 47.5621 29.0165 47.6109C29.3986 47.3028 29.7807 46.9938 30.1647 46.6867C31.4277 45.6768 32.6946 44.6719 33.9546 43.6571C34.29 43.3871 34.4271 42.6862 34.1792 42.346C34.0917 42.2261 33.8127 42.1442 33.6698 42.192C33.4179 42.2768 33.1943 42.46 32.9765 42.6267C31.6086 43.6717 30.6149 45.054 29.5979 46.4138C29.3412 46.755 29.1098 47.1147 28.8678 47.4656Z" fill="#A183A6"/>
<path d="M10.6202 40.9565C11.2153 40.5822 11.8093 40.2089 12.4043 39.8345C14.8106 38.3226 17.3521 37.0866 20.0764 36.2794C22.054 35.6936 24.087 35.3904 26.1588 35.5903C26.6654 35.639 27.1681 35.7999 27.6522 35.9685C28.0858 36.1196 28.0742 36.1547 27.9993 36.7064C27.8632 36.6986 27.7116 36.725 27.5852 36.6792C26.0548 36.1245 24.4914 36.2385 22.9358 36.4851C19.5426 37.0213 16.4995 38.4699 13.5711 40.1903C12.554 40.7879 11.5837 41.4663 10.5609 42.0542C9.95425 42.4031 9.72284 42.9558 9.49244 43.5495C8.94989 44.9503 8.39665 46.3471 7.83375 47.7401C7.68204 48.1144 7.06176 48.3064 6.61647 48.13C6.22562 47.975 6.30924 47.626 6.36562 47.3346C6.52119 46.5274 6.70689 45.7262 6.90328 44.8157C6.43465 45.1783 6.02728 45.4981 5.61407 45.811C4.34916 46.7672 3.0862 47.7264 1.80963 48.6681C1.59573 48.826 1.32739 48.9469 1.0678 48.9956C0.875287 49.0317 0.572916 48.9907 0.472773 48.863C0.371658 48.7343 0.377492 48.402 0.476662 48.2519C1.26031 47.0635 2.05367 45.8802 2.89078 44.7299C3.66177 43.6713 4.49403 42.6585 5.55768 41.865C6.54841 41.1251 6.65049 41.0969 8.04567 41.4322C8.34516 40.6261 8.63491 39.8082 8.95084 39.0011C9.88225 36.6255 10.7962 34.2412 11.7704 31.8832C12.5638 29.9628 13.43 28.0727 14.273 26.1739C15.1509 24.196 16.0211 22.2152 16.9292 20.2511C17.4221 19.1846 18.0025 18.1591 18.5188 17.1035C19.0925 15.9288 19.6311 14.7367 20.1989 13.5581C20.8308 12.248 21.4687 10.9398 22.124 9.64044C23.2975 7.31556 24.4827 4.99557 25.6727 2.6785C26.05 1.94448 26.4622 1.22899 26.8511 0.501794C27.1097 0.0173239 27.5511 0.170366 27.9244 0.219105C28.3095 0.269795 28.256 0.648987 28.1996 0.891707C28.0324 1.6111 27.8943 2.35682 27.5919 3.0226C26.3202 5.82122 24.9902 8.59255 23.6873 11.3765C22.9893 12.869 22.3106 14.3721 21.6077 15.8615C20.8221 17.5255 19.9967 19.1709 19.2276 20.8417C18.1367 23.2134 17.0838 25.6026 16.0124 27.9831C15.4426 29.2483 14.8428 30.5009 14.3002 31.7779C13.2706 34.2012 12.2721 36.6382 11.2629 39.0703C11.0159 39.6659 10.7787 40.2654 10.5376 40.8639C10.5648 40.8951 10.593 40.9263 10.6202 40.9565ZM1.72893 47.5129C1.77463 47.5559 1.82032 47.5987 1.86602 47.6407C2.06727 47.512 2.28215 47.3999 2.46785 47.2517C3.93012 46.081 5.37684 44.8898 6.85369 43.7366C7.22705 43.4452 7.33302 43.1264 7.26885 42.6926C7.18135 42.1068 6.92273 41.9264 6.47452 42.2842C5.68796 42.9119 4.91502 43.5787 4.24902 44.3302C3.35357 45.3411 2.5641 46.4475 1.72893 47.5129Z" fill="#A183A6"/>
<path d="M29.0155 25.9493C29.4822 26.0303 30.0578 26.1482 30.6382 26.2252C31.9702 26.4036 33.1699 25.8928 34.3931 25.4892C34.605 25.4191 34.8558 25.4698 35.0892 25.4649C34.9239 25.6374 34.7907 25.8899 34.5894 25.9698C32.8997 26.6405 31.1739 27.0431 29.3451 26.5917C28.6791 26.427 28.6402 26.4738 28.4107 27.1181C27.7039 29.1028 26.5625 30.8194 25.1391 32.3498C24.8708 32.6383 24.5121 32.8752 24.1503 33.0351C23.1431 33.4815 22.3691 32.9094 22.3896 31.8107C22.4129 30.5874 22.7552 29.4352 23.2481 28.3493C23.9141 26.8813 24.7094 25.4727 25.4269 24.0271C25.5426 23.7941 25.5795 23.5036 25.5844 23.2384C25.6078 21.9147 25.704 20.5958 26.4099 19.4397C26.6636 19.0235 27.0856 18.6521 27.5153 18.4162C28.1774 18.0536 28.8803 18.3645 29.2148 19.0488C29.6174 19.8745 29.7389 20.7693 29.6436 21.6574C29.4958 23.0532 29.243 24.4365 29.0155 25.9493ZM27.5853 25.4151C27.6845 25.2738 27.7506 25.2027 27.7915 25.1198C28.3194 24.0368 28.7131 22.9051 28.8619 21.707C28.964 20.8892 29.0534 20.0538 28.7034 19.2633C28.4846 18.77 28.0598 18.6706 27.6388 19.0001C27.4871 19.1181 27.35 19.2623 27.2314 19.4144C26.5742 20.2585 26.2981 21.246 26.1902 22.291C26.1775 22.4148 26.2096 22.5435 26.2242 22.7062C26.6743 22.2188 27.0574 21.7841 27.4657 21.3727C27.6233 21.2138 27.9558 21.1427 27.946 21.4214C27.9334 21.7987 27.8118 22.3553 27.5513 22.4986C27.1497 22.7199 26.9601 23.0513 26.7842 23.3798C26.6247 23.6762 26.4847 24.1401 26.6102 24.3946C26.8036 24.7865 27.2305 25.0623 27.5853 25.4151ZM26.0531 24.8225C25.0672 27.0246 24.0619 29.173 23.7089 31.5641C25.1819 29.9538 26.2378 28.0734 27.2888 26.1901C27.3374 26.1034 27.2985 25.8928 27.2236 25.8226C26.8717 25.4941 26.4935 25.1939 26.0531 24.8225Z" fill="#A183A6"/>
<path d="M109.38 28.3496C109.278 28.9394 109.377 29.5038 109.726 30.0039C110.236 30.7369 110.951 30.8724 111.922 30.5322C113.424 30.0068 114.731 29.148 115.995 28.2122C117.1 27.3944 118.191 26.557 119.293 25.7343C119.425 25.6358 119.58 25.5696 119.726 25.4887C119.761 25.5227 119.794 25.5559 119.83 25.59C119.749 25.7236 119.695 25.8854 119.583 25.9858C117.447 27.9256 115.236 29.7661 112.765 31.273C111.483 32.0548 110.168 32.0919 108.834 31.4631C108.205 31.1668 107.878 30.6209 107.817 29.9191C107.705 28.5904 108.084 27.3866 108.744 26.2588C109.583 24.8209 110.427 23.3743 111.825 22.3967C112.232 22.111 112.739 21.8965 113.228 21.8147C114.012 21.6831 114.423 22.0584 114.583 22.8499C114.723 23.5517 114.577 24.2088 114.252 24.8238C113.48 26.2948 112.451 27.525 110.858 28.1372C110.421 28.3039 109.911 28.2785 109.38 28.3496ZM114.147 23.2895C114.064 22.3937 113.62 22.075 112.844 22.38C112.754 22.4152 112.667 22.46 112.583 22.5097C110.913 23.5098 110.041 25.0744 109.527 26.8836C109.484 27.0327 109.552 27.214 109.567 27.3807C109.722 27.3622 109.887 27.3729 110.03 27.3203C111.54 26.7627 112.643 25.6865 113.584 24.431C113.835 24.0977 113.963 23.6726 114.147 23.2895Z" fill="#A183A6"/>
<path d="M19.4787 30.8886C19.5661 30.6225 19.6322 30.2823 19.7896 29.9908C19.8751 29.8319 20.2142 29.6262 20.2676 29.6671C20.5047 29.8475 20.7631 30.0824 20.8535 30.3515C20.9428 30.6195 20.2424 31.2892 19.9344 31.3457C19.606 31.4052 19.4952 31.2424 19.4787 30.8886Z" fill="#A183A6"/>
<path d="M27.0335 65.2073H24.5171V66.7304H25.8148C26.3596 66.7374 26.785 66.8737 27.0909 67.1392C27.3968 67.4047 27.5498 67.7657 27.5498 68.2222C27.5498 68.681 27.3956 69.0467 27.0874 69.3192C26.7791 69.5917 26.3585 69.7326 25.8255 69.742H23.8253V64.6552H27.0335V65.2073ZM24.5171 67.2825V69.1935H25.7754C26.1171 69.1935 26.3823 69.105 26.5711 68.9279C26.7623 68.7509 26.8579 68.5134 26.8579 68.2152C26.8579 67.9287 26.7659 67.7028 26.5819 67.5375C26.4003 67.3721 26.141 67.2871 25.804 67.2825H24.5171Z" fill="#A183A6"/>
<path d="M32.4966 67.3628C32.4966 67.8612 32.4106 68.2967 32.2385 68.6694C32.0664 69.0396 31.8227 69.3226 31.5072 69.5183C31.1918 69.714 30.8237 69.8118 30.4031 69.8118C29.9921 69.8118 29.6276 69.714 29.3098 69.5183C28.992 69.3203 28.7447 69.0396 28.5678 68.6764C28.3933 68.3107 28.3037 67.8879 28.2989 67.4081V67.0414C28.2989 66.5522 28.3862 66.1202 28.5607 65.7452C28.7351 65.3702 28.9812 65.0838 29.2991 64.8858C29.6193 64.6855 29.985 64.5853 30.396 64.5853C30.8142 64.5853 31.1822 64.6843 31.5001 64.8823C31.8203 65.0779 32.0664 65.3633 32.2385 65.7382C32.4106 66.1109 32.4966 66.5452 32.4966 67.0414V67.3628ZM31.8119 67.0344C31.8119 66.4311 31.6876 65.9688 31.4391 65.6474C31.1906 65.3237 30.8428 65.1618 30.396 65.1618C29.961 65.1618 29.6181 65.3237 29.3672 65.6474C29.1186 65.9688 28.9908 66.416 28.9836 66.9889V67.3628C28.9836 67.9474 29.1091 68.4073 29.36 68.7427C29.6133 69.0758 29.961 69.2423 30.4031 69.2423C30.8476 69.2423 31.1918 69.0851 31.4355 68.7707C31.6793 68.4539 31.8047 68.001 31.8119 67.4116V67.0344Z" fill="#A183A6"/>
<path d="M37.3609 64.6552V69.742H36.6727V65.2073H34.8015L34.7083 67.223C34.6724 67.8985 34.6008 68.4062 34.4932 68.7463C34.3881 69.0863 34.2327 69.3367 34.0272 69.4974C33.8217 69.6558 33.5469 69.7373 33.2027 69.742H32.9769V69.1935L33.1203 69.1865C33.3425 69.1701 33.5134 69.1003 33.6329 68.9768C33.7524 68.8511 33.8432 68.6519 33.9054 68.3794C33.9675 68.1069 34.0117 67.6877 34.0379 67.1218L34.1455 64.6552H37.3609Z" fill="#A183A6"/>
<path d="M39.2788 66.7304H40.5764C41.1213 66.7374 41.5467 66.8737 41.8526 67.1392C42.1585 67.4047 42.3114 67.7657 42.3114 68.2222C42.3114 68.681 42.1572 69.0467 41.849 69.3192C41.5407 69.5917 41.1201 69.7326 40.5871 69.742H38.5905V64.6552H39.2788V66.7304ZM39.2788 67.2825V69.1935H40.537C40.8787 69.1935 41.144 69.105 41.3328 68.9279C41.5239 68.7509 41.6196 68.5134 41.6196 68.2152C41.6196 67.9287 41.5276 67.7028 41.3435 67.5375C41.1619 67.3721 40.9026 67.2871 40.5657 67.2825H39.2788Z" fill="#A183A6"/>
<path d="M43.9388 64.6552V69.1935H45.7348V64.6552H46.4194V69.1935H48.2046V64.6552H48.8928V69.742H43.247V64.6552H43.9388Z" fill="#A183A6"/>
<path d="M53.0833 67.3908H50.8214V69.1935H53.4489V69.742H50.1331V64.6552H53.4131V65.2073H50.8214V66.8423H53.0833V67.3908Z" fill="#A183A6"/>
<path d="M59.9085 64.6552V69.742H59.2166V67.6353C58.9657 67.7052 58.7375 67.7541 58.532 67.782C58.3265 67.8076 58.0923 67.8205 57.8294 67.8205C57.2343 67.8205 56.7922 67.6947 56.503 67.4432C56.2139 67.1916 56.0657 66.8061 56.0585 66.2868V64.6552H56.7504V66.2693C56.7528 66.6233 56.8352 66.8784 56.9977 67.0344C57.1626 67.1905 57.4398 67.2685 57.8294 67.2685C58.2834 67.2685 58.7459 67.2055 59.2166 67.0798V64.6552H59.9085Z" fill="#A183A6"/>
<path d="M64.1026 67.3908H61.8406V69.1935H64.4682V69.742H61.1524V64.6552H64.4324V65.2073H61.8406V66.8423H64.1026V67.3908Z" fill="#A183A6"/>
<path d="M66.2139 64.6552L67.9202 68.8056L69.6265 64.6552H70.5191V69.742H69.8308V67.7611L69.8954 65.623L68.1819 69.742H67.6549L65.945 65.6335L66.0132 67.7611V69.742H65.325V64.6552H66.2139Z" fill="#A183A6"/>
<path d="M77.3942 68.1278C77.3302 68.6659 77.1258 69.0816 76.7818 69.3751C76.44 69.6662 75.9847 69.8118 75.416 69.8118C74.7993 69.8118 74.3047 69.5963 73.9316 69.1654C73.5615 68.7346 73.376 68.1582 73.376 67.4361V66.947C73.376 66.4742 73.4618 66.0585 73.6342 65.6998C73.8087 65.3411 74.0546 65.0663 74.3724 64.8753C74.6902 64.682 75.0582 64.5853 75.4764 64.5853C76.0313 64.5853 76.4756 64.7367 76.8102 65.0395C77.1447 65.3399 77.3396 65.7569 77.3942 66.2902H76.7025C76.6429 65.885 76.5127 65.5915 76.312 65.4099C76.1135 65.2282 75.8349 65.1373 75.4764 65.1373C75.0371 65.1373 74.6916 65.2957 74.4407 65.6124C74.192 65.9292 74.0676 66.3799 74.0676 66.9645V67.4571C74.0676 68.009 74.1862 68.4481 74.4226 68.7742C74.6596 69.1002 74.9905 69.2633 75.416 69.2633C75.7978 69.2633 76.0909 69.1794 76.2938 69.0117C76.4996 68.8417 76.6356 68.5471 76.7025 68.1278H77.3942Z" fill="#A183A6"/>
<path d="M81.8356 65.2073H80.1585V69.742H79.4734V65.2073H77.7993V64.6552H81.8356V65.2073Z" fill="#A183A6"/>
<path d="M85.9011 64.6552H86.5891V69.742H85.9011V65.8221L83.3309 69.742H82.6385V64.6552H83.3309V68.5751L85.9011 64.6552Z" fill="#A183A6"/>
<path d="M91.8553 64.6552V69.742H91.1665V65.2073H89.2953L89.2022 67.223C89.1665 67.8985 89.0946 68.4062 88.9869 68.7463C88.8822 69.0863 88.7266 69.3367 88.5215 69.4974C88.3156 69.6558 88.0407 69.7373 87.6967 69.742H87.4713V69.1935L87.6146 69.1865C87.8364 69.1701 88.0073 69.1003 88.1273 68.9768C88.2466 68.8511 88.3375 68.6519 88.3993 68.3794C88.4618 68.1069 88.5055 67.6877 88.5324 67.1218L88.6393 64.6552H91.8553Z" fill="#A183A6"/>
<path d="M93.7731 66.7304H95.0705C95.6153 66.7374 96.0407 66.8737 96.3469 67.1392C96.6524 67.4047 96.8051 67.7657 96.8051 68.2222C96.8051 68.681 96.6509 69.0467 96.3433 69.3192C96.0349 69.5917 95.6138 69.7326 95.0814 69.742H93.0844V64.6552H93.7731V66.7304ZM93.7731 67.2825V69.1935H95.0313C95.3731 69.1935 95.6378 69.105 95.8269 68.9279C96.0182 68.7509 96.1134 68.5134 96.1134 68.2152C96.1134 67.9287 96.0218 67.7028 95.8378 67.5375C95.656 67.3721 95.3964 67.2871 95.0596 67.2825H93.7731Z" fill="#A183A6"/>
</svg>
