<svg width="120" height="70" viewBox="0 0 120 70" fill="none" xmlns="http://www.w3.org/2000/svg">
<mask id="mask0" mask-type="alpha" maskUnits="userSpaceOnUse" x="0" y="0" width="120" height="70">
<rect width="120" height="70" fill="#C4C4C4"/>
</mask>
<g mask="url(#mask0)">
</g>
<g clip-path="url(#clip0)">
<path d="M0.945909 35.447C0.724055 35.447 0.5397 35.3754 0.395963 35.2322C0.252227 35.089 0.180359 34.9083 0.180359 34.6904C0.180359 34.4693 0.252227 34.2887 0.395963 34.1454C0.5397 34.0022 0.724055 33.9306 0.945909 33.9306C1.16776 33.9306 1.35212 34.0022 1.49898 34.1423C1.64272 34.2856 1.71459 34.4662 1.71459 34.6872C1.71459 34.9083 1.64272 35.089 1.49898 35.2322C1.35524 35.3754 1.17089 35.447 0.945909 35.447ZM0.624065 35.0329C0.705309 35.1232 0.814673 35.1699 0.945909 35.1699C1.07715 35.1699 1.18651 35.1232 1.27088 35.0329C1.35212 34.9426 1.39587 34.8274 1.39587 34.6872C1.39587 34.5472 1.35524 34.4319 1.27088 34.3416C1.18964 34.2513 1.08027 34.2046 0.945909 34.2046C0.811547 34.2046 0.705309 34.2513 0.624065 34.3416C0.542822 34.4319 0.502205 34.5472 0.502205 34.6872C0.502205 34.8274 0.542822 34.9426 0.624065 35.0329Z" fill="#A183A6"/>
<path d="M3.04565 35.4469C2.8238 35.4469 2.63632 35.3753 2.48633 35.2351C2.33634 35.095 2.26135 34.9113 2.26135 34.6902C2.26135 34.4691 2.33634 34.2854 2.48633 34.1453C2.63632 34.0052 2.82067 33.9335 3.04565 33.9335C3.32062 33.9335 3.52686 34.0519 3.66122 34.2916L3.39249 34.4224C3.36125 34.3602 3.31125 34.3103 3.25188 34.2699C3.18939 34.2294 3.12065 34.2107 3.04878 34.2107C2.91441 34.2107 2.80505 34.2574 2.71756 34.3477C2.63007 34.438 2.58632 34.5532 2.58632 34.6933C2.58632 34.8334 2.63007 34.9487 2.71756 35.039C2.80505 35.1293 2.91441 35.176 3.04878 35.176C3.12377 35.176 3.18939 35.1573 3.25188 35.1168C3.31438 35.0764 3.36125 35.0265 3.39249 34.9642L3.66122 35.095C3.52061 35.3255 3.31438 35.4469 3.04565 35.4469Z" fill="#A183A6"/>
<path d="M5.56663 35.4219H5.25102V34.8054H4.55735V35.4188H4.24487V33.9553H4.55735V34.5313H5.25102V33.9553H5.56663V35.4219Z" fill="#A183A6"/>
<path d="M31.2957 35.422H30.1896V35.1791C30.5052 34.9456 30.7114 34.7805 30.8145 34.6809C30.9176 34.5812 30.9676 34.4909 30.9676 34.4038C30.9676 34.3446 30.9426 34.2979 30.8957 34.2636C30.8489 34.2294 30.7926 34.2138 30.727 34.2138C30.5739 34.2138 30.4427 34.2698 30.3333 34.3819L30.1552 34.1764C30.2239 34.0986 30.3083 34.0363 30.4083 33.9989C30.5083 33.9584 30.6114 33.9398 30.7208 33.9398C30.8832 33.9398 31.0176 33.9833 31.1238 34.0674C31.2301 34.1515 31.2832 34.2667 31.2832 34.4068C31.2832 34.5283 31.2363 34.6435 31.1426 34.7587C31.0488 34.8739 30.8989 35.0047 30.6958 35.1511H31.2957V35.422Z" fill="#A183A6"/>
<path d="M32.8268 35.3344C32.733 35.4091 32.6174 35.4465 32.4862 35.4465C32.3518 35.4465 32.2393 35.4091 32.1424 35.3344C32.0487 35.2597 31.98 35.1662 31.9393 35.0541C31.8987 34.9421 31.8768 34.8206 31.8768 34.6898C31.8768 34.559 31.8987 34.4376 31.9393 34.3255C31.98 34.2134 32.0487 34.12 32.1424 34.0452C32.2362 33.9705 32.3518 33.9332 32.4862 33.9332C32.6205 33.9332 32.733 33.9705 32.8268 34.0452C32.9205 34.12 32.9892 34.2134 33.0299 34.3255C33.0705 34.4376 33.0923 34.559 33.0923 34.6898C33.0923 34.8206 33.0705 34.9421 33.0299 35.0541C32.9892 35.1662 32.9205 35.2565 32.8268 35.3344ZM32.2674 35.0386C32.3143 35.1257 32.3893 35.1694 32.4893 35.1694C32.5893 35.1694 32.6611 35.1257 32.708 35.0386C32.7549 34.9514 32.7767 34.833 32.7767 34.6898C32.7767 34.5435 32.7549 34.4283 32.708 34.3411C32.6611 34.2539 32.5893 34.2103 32.4893 34.2103C32.3893 34.2103 32.3174 34.2539 32.2674 34.3411C32.2206 34.4283 32.1955 34.5435 32.1955 34.6898C32.1955 34.833 32.2206 34.9514 32.2674 35.0386Z" fill="#A183A6"/>
<path d="M34.5923 35.3344C34.4986 35.4091 34.383 35.4465 34.2517 35.4465C34.1173 35.4465 34.0049 35.4091 33.908 35.3344C33.8142 35.2597 33.7455 35.1662 33.7049 35.0541C33.6643 34.9421 33.6424 34.8206 33.6424 34.6898C33.6424 34.559 33.6643 34.4376 33.7049 34.3255C33.7455 34.2134 33.8142 34.12 33.908 34.0452C34.0017 33.9705 34.1173 33.9332 34.2517 33.9332C34.3861 33.9332 34.4986 33.9705 34.5923 34.0452C34.6861 34.12 34.7548 34.2134 34.7954 34.3255C34.836 34.4376 34.8579 34.559 34.8579 34.6898C34.8579 34.8206 34.836 34.9421 34.7954 35.0541C34.7516 35.1662 34.6861 35.2565 34.5923 35.3344ZM34.0299 35.0386C34.0767 35.1257 34.1517 35.1694 34.2517 35.1694C34.3517 35.1694 34.4236 35.1257 34.4704 35.0386C34.5173 34.9514 34.5392 34.833 34.5392 34.6898C34.5392 34.5435 34.5173 34.4283 34.4704 34.3411C34.4236 34.2539 34.3517 34.2103 34.2517 34.2103C34.1517 34.2103 34.0799 34.2539 34.0299 34.3411C33.983 34.4283 33.958 34.5435 33.958 34.6898C33.958 34.833 33.983 34.9514 34.0299 35.0386Z" fill="#A183A6"/>
<path d="M35.939 35.4217H35.5953L36.1233 34.2323H35.3828V33.9583H36.4858V34.1762L35.939 35.4217Z" fill="#A183A6"/>
<path d="M56.2715 44.736H55.8998V43.5528L55.3907 44.736H55.2436L54.7312 43.5528V44.736H54.3595V43.0359H54.8437L55.3157 44.1319L55.7812 43.0359H56.2687V44.736H56.2715Z" fill="#A183A6"/>
<path d="M59.3995 44.7357H59.0278V44.552C58.8965 44.7015 58.7123 44.7762 58.4779 44.7762C58.3218 44.7762 58.184 44.7264 58.0654 44.6267C57.9468 44.5271 57.884 44.3901 57.884 44.2126C57.884 44.032 57.9436 43.895 58.0622 43.8015C58.1812 43.7081 58.3186 43.6614 58.4779 43.6614C58.7217 43.6614 58.9026 43.733 59.0278 43.8794V43.6272C59.0278 43.5275 58.9903 43.4528 58.9186 43.3936C58.8464 43.3376 58.7498 43.3095 58.6279 43.3095C58.4372 43.3095 58.2684 43.3812 58.1217 43.5244L57.9684 43.2691C58.1625 43.0854 58.3997 42.9951 58.6842 42.9951C58.8933 42.9951 59.0653 43.0449 59.1965 43.1414C59.3278 43.241 59.3934 43.3967 59.3934 43.6085V44.7357H59.3995ZM58.6218 44.524C58.8061 44.524 58.9434 44.4648 59.0278 44.3496V44.0942C58.9434 43.9759 58.8089 43.9199 58.6218 43.9199C58.5154 43.9199 58.4278 43.9479 58.3593 44.004C58.2904 44.06 58.2562 44.1347 58.2562 44.225C58.2562 44.3153 58.2904 44.3901 58.3593 44.4461C58.4278 44.4991 58.5154 44.524 58.6218 44.524Z" fill="#A183A6"/>
<path d="M61.484 44.7358H61.1123V43.0356H61.484V43.7051H62.2682V43.0356H62.6404V44.7358H62.2682V44.029H61.484V44.7358Z" fill="#A183A6"/>
<path d="M64.7118 44.7358H64.3556V43.0356H64.7273V44.1784L65.5115 43.0356H65.8837V44.7358H65.5115V43.5619L64.7118 44.7358Z" fill="#A183A6"/>
<path d="M69.1898 44.7358H68.7239L68.2022 44.0352L67.9645 44.2781V44.7358H67.5928V43.0356H67.9645V43.8546L68.7178 43.0356H69.1772L68.4679 43.8048L69.1898 44.7358Z" fill="#A183A6"/>
<path d="M72.2174 44.7793C71.9798 44.7793 71.7829 44.7077 71.6301 44.5675C71.4768 44.4274 71.3831 44.2468 71.3521 44.0288H71.0549V44.7357H70.6832V43.0355H71.0549V43.705H71.3549C71.3924 43.4964 71.4895 43.3251 71.6423 43.1943C71.7956 43.0605 71.9864 42.9951 72.2174 42.9951C72.4832 42.9951 72.6956 43.0791 72.8549 43.2504C73.0143 43.4216 73.0954 43.6334 73.0954 43.8825C73.0954 44.1347 73.0143 44.3496 72.8549 44.5177C72.6989 44.6921 72.4832 44.7793 72.2174 44.7793ZM72.2174 44.4523C72.3707 44.4523 72.4926 44.3963 72.5798 44.2873C72.6674 44.1783 72.711 44.0444 72.711 43.8856C72.711 43.7299 72.6674 43.596 72.5798 43.487C72.4926 43.3781 72.3707 43.322 72.2174 43.322C72.0674 43.322 71.9489 43.3781 71.8579 43.487C71.7707 43.596 71.7267 43.7299 71.7267 43.8856C71.7267 44.0444 71.7707 44.1783 71.8579 44.2873C71.9489 44.3963 72.0674 44.4523 72.2174 44.4523Z" fill="#A183A6"/>
<path d="M75.6235 44.7795C75.3985 44.7795 75.2142 44.686 75.0764 44.5023V45.3866H74.7047V43.0419H75.0764V43.2755C75.2142 43.0917 75.3952 43.0014 75.6235 43.0014C75.8485 43.0014 76.0299 43.0824 76.17 43.2412C76.3107 43.4 76.3796 43.618 76.3796 43.892C76.3796 44.166 76.3107 44.384 76.17 44.5459C76.0299 44.6985 75.8485 44.7795 75.6235 44.7795ZM75.5142 44.4525C75.661 44.4525 75.7768 44.3996 75.8639 44.2937C75.9516 44.1878 75.9952 44.0508 75.9952 43.8858C75.9952 43.7207 75.9516 43.5837 75.8639 43.481C75.7768 43.3782 75.661 43.3253 75.5142 43.3253C75.4299 43.3253 75.3455 43.3471 75.2639 43.3907C75.1828 43.4342 75.1205 43.4903 75.0764 43.5526V44.2252C75.1205 44.2874 75.1796 44.3435 75.2639 44.3871C75.3483 44.4307 75.4299 44.4525 75.5142 44.4525Z" fill="#A183A6"/>
<path d="M80.8381 44.0443H79.9917V43.7267H80.8381V44.0443Z" fill="#A183A6"/>
<path d="M86.0879 44.7358H85.7161V43.3595H84.9319V44.7358H84.5602V43.0356H86.085V44.7358H86.0879Z" fill="#A183A6"/>
<path d="M88.5876 44.7793C88.3279 44.7793 88.1156 44.6952 87.9468 44.5302C87.7781 44.3651 87.6937 44.1503 87.6937 43.8856C87.6937 43.6365 87.7748 43.4279 87.9408 43.2535C88.1029 43.0822 88.3092 42.9951 88.5595 42.9951C88.8126 42.9951 89.0156 43.0822 89.1684 43.2566C89.3217 43.431 89.4 43.6521 89.4 43.9199V44.007H88.0842C88.1001 44.141 88.1531 44.2531 88.2501 44.3402C88.3467 44.4305 88.4719 44.4741 88.6279 44.4741C88.7156 44.4741 88.8033 44.4586 88.8904 44.4243C88.9781 44.3901 89.0531 44.3464 89.1122 44.2873L89.2809 44.5302C89.1094 44.6952 88.8778 44.7793 88.5876 44.7793ZM89.0405 43.7486C89.0344 43.6303 88.9936 43.5275 88.9125 43.4341C88.8314 43.3438 88.7156 43.2971 88.5623 43.2971C88.4156 43.2971 88.3031 43.3438 88.2187 43.431C88.1376 43.5213 88.0908 43.6272 88.0814 43.7455H89.0405V43.7486Z" fill="#A183A6"/>
<path d="M90.8282 45.1687V44.4307C90.9093 44.412 90.9689 44.3654 91.0092 44.2906C91.05 44.2159 91.0842 44.0757 91.1095 43.864L91.2126 43.0388H92.5279V44.4151H92.7154V45.1718H92.3437V44.739H91.1967V45.1718H90.8282V45.1687ZM91.5403 43.3595L91.4812 43.9045C91.4559 44.1287 91.3809 44.3 91.2562 44.412H92.159V43.3595H91.5403Z" fill="#A183A6"/>
<path d="M94.6116 44.7358H94.2554V43.0356H94.6271V44.1784L95.4118 43.0356H95.7835V44.7358H95.4118V43.5619L94.6116 44.7358Z" fill="#A183A6"/>
<path d="M99.09 44.7358H98.624L98.1023 44.0352L97.8651 44.2781V44.7358H97.4929V43.0356H97.8651V43.8546L98.6179 43.0356H99.0773L98.3681 43.8048L99.09 44.7358Z" fill="#A183A6"/>
<path d="M102.117 44.7793C101.88 44.7793 101.683 44.7077 101.53 44.5675C101.377 44.4274 101.283 44.2468 101.252 44.0288H100.955V44.7357H100.583V43.0355H100.955V43.705H101.255C101.292 43.4964 101.389 43.3251 101.543 43.1943C101.695 43.0605 101.886 42.9951 102.117 42.9951C102.383 42.9951 102.595 43.0791 102.755 43.2504C102.914 43.4216 102.995 43.6334 102.995 43.8825C102.995 44.1347 102.914 44.3496 102.755 44.5177C102.595 44.6921 102.383 44.7793 102.117 44.7793ZM102.117 44.4523C102.271 44.4523 102.392 44.3963 102.48 44.2873C102.567 44.1783 102.611 44.0444 102.611 43.8856C102.611 43.7299 102.567 43.596 102.48 43.487C102.392 43.3781 102.271 43.322 102.117 43.322C101.967 43.322 101.849 43.3781 101.758 43.487C101.671 43.596 101.627 43.7299 101.627 43.8856C101.627 44.0444 101.671 44.1783 101.758 44.2873C101.849 44.3963 101.967 44.4523 102.117 44.4523Z" fill="#A183A6"/>
<path d="M105.523 44.7795C105.298 44.7795 105.114 44.686 104.977 44.5023V45.3866H104.604V43.0419H104.977V43.2755C105.114 43.0917 105.295 43.0014 105.523 43.0014C105.748 43.0014 105.93 43.0824 106.07 43.2412C106.211 43.4 106.279 43.618 106.279 43.892C106.279 44.166 106.211 44.384 106.07 44.5459C105.93 44.6985 105.748 44.7795 105.523 44.7795ZM105.414 44.4525C105.561 44.4525 105.676 44.3996 105.764 44.2937C105.851 44.1878 105.895 44.0508 105.895 43.8858C105.895 43.7207 105.851 43.5837 105.764 43.481C105.676 43.3782 105.561 43.3253 105.414 43.3253C105.33 43.3253 105.245 43.3471 105.164 43.3907C105.082 43.4342 105.02 43.4903 104.977 43.5526V44.2252C105.02 44.2874 105.079 44.3435 105.164 44.3871C105.245 44.4307 105.33 44.4525 105.414 44.4525Z" fill="#A183A6"/>
<path d="M10.2452 43.5647C10.2452 37.7387 10.2452 31.9407 10.2452 26.124C10.3546 26.1147 10.4421 26.0991 10.5327 26.0991C13.7542 26.1023 16.9789 26.0649 20.2005 26.1334C22.1253 26.1739 23.7408 27.0333 25.0719 28.4096C26.1906 29.568 26.8592 30.9536 27.0811 32.5479C27.1342 32.9216 27.1592 33.3015 27.1592 33.6783C27.1655 36.8668 27.1623 40.0554 27.1623 43.2441C27.1623 43.3437 27.1499 43.4464 27.1405 43.6239C26.4843 43.5772 25.8437 43.5647 25.2125 43.4838C22.9003 43.1911 20.7723 42.4126 18.9037 41.0021C18.7444 40.8806 18.635 40.8931 18.4819 41.0083C16.4477 42.531 14.1292 43.3001 11.6232 43.5617C11.1764 43.6021 10.7233 43.5647 10.2452 43.5647ZM11.4044 27.2762C11.4044 32.3175 11.4044 37.3433 11.4044 42.4033C13.7449 42.1635 15.8853 41.466 17.7632 40.0772C17.3976 39.6257 17.0352 39.2116 16.7071 38.7694C15.7697 37.499 15.0947 36.1289 15.1603 34.491C15.2197 32.9839 16.2009 31.6823 17.6445 31.2339C19.0631 30.7917 20.6223 31.3055 21.5222 32.495C22.294 33.5132 22.3284 34.656 22.0941 35.8393C21.8597 37.0288 21.2316 38.0283 20.5192 38.9812C20.2411 39.3548 19.9193 39.6973 19.6005 40.0772C21.5129 41.4536 23.6346 42.2009 25.9781 42.4126C25.9874 42.2974 26 42.2102 26 42.1199C26 39.2988 26.0093 36.4776 25.9968 33.6564C25.9906 32.3954 25.6937 31.2027 24.975 30.1409C23.7408 28.3162 22.0284 27.2949 19.8068 27.2669C17.0914 27.2295 14.3729 27.2544 11.6576 27.2544C11.5826 27.2482 11.5045 27.2637 11.4044 27.2762ZM18.685 39.3143C19.6349 38.3491 20.4317 37.3277 20.8254 36.0697C20.991 35.5372 21.0598 34.9425 21.0317 34.382C20.9879 33.4759 20.4817 32.8126 19.6474 32.4483C18.8038 32.0808 17.9819 32.1743 17.2414 32.7316C16.3352 33.4105 16.1946 34.3571 16.3759 35.3847C16.654 36.9571 17.5945 38.1467 18.685 39.3143Z" fill="#A183A6"/>
<path d="M33.8615 37.1817C33.1928 42.7586 28.1776 49.3102 20.1534 50.1727C11.2605 51.1287 4.14243 44.7266 2.98004 37.1848C3.32376 37.1848 3.66435 37.1661 3.9987 37.2004C4.07369 37.2066 4.16431 37.3872 4.1893 37.5024C4.56739 39.3707 5.26734 41.1114 6.35784 42.6683C9.2888 46.8502 13.3165 49.0673 18.4504 49.0984C24.8154 49.1389 30.3649 45.0318 32.3054 38.9348C32.4647 38.4335 32.5647 37.9134 32.7084 37.409C32.7334 37.3218 32.8303 37.1973 32.899 37.191C33.2178 37.1693 33.5396 37.1817 33.8615 37.1817Z" fill="#A183A6"/>
<path d="M33.877 32.084C33.7457 32.0902 33.6426 32.1026 33.5426 32.1026C33.2895 32.1058 33.0395 32.1026 32.8052 32.1026C32.5865 31.3491 32.4208 30.6111 32.1584 29.9074C30.2117 24.7228 26.5183 21.4284 21.0719 20.435C15.3787 19.3981 10.6167 21.3131 6.95769 25.794C5.55158 27.516 4.63915 29.5057 4.22981 31.701C4.17044 32.028 4.04233 32.1494 3.71424 32.1089C3.47988 32.0809 3.23616 32.1026 2.99243 32.1026C3.99546 25.1837 10.4386 18.6165 19.2065 19.0369C27.562 19.4386 33.0521 26.012 33.877 32.084Z" fill="#A183A6"/>
<path d="M57.7749 37.6206C57.4153 37.8728 57.1153 38.1219 56.7811 38.3119C55.3031 39.1495 53.7375 39.3363 52.1283 38.7945C50.8908 38.3772 50.3939 37.3186 50.8345 36.1758C51.1252 35.4191 51.766 35.0205 52.5033 34.8742C53.5252 34.6718 54.5719 34.5815 55.606 34.4507C55.981 34.404 56.3625 34.3728 56.7371 34.3292C57.2152 34.2732 57.5592 34.0428 57.6746 33.5539C57.7997 33.0339 57.6966 32.5699 57.2653 32.2243C57.1092 32.0966 56.9185 31.9814 56.7249 31.9285C55.7344 31.6576 54.7374 31.5797 53.7314 31.8849C53.1314 32.0655 52.7438 32.4578 52.5469 33.0339C52.4878 33.2082 52.4096 33.2706 52.2314 33.2612C51.9094 33.2487 51.5878 33.2581 51.2471 33.2581C51.3066 32.5388 51.6314 31.997 52.2188 31.6296C52.7939 31.2715 53.4408 31.1033 54.1092 31.0348C55.3688 30.9071 56.6152 30.9196 57.8124 31.4053C58.7091 31.7666 59.0681 32.2866 59.0714 33.2487C59.0747 34.5908 59.0714 35.9329 59.0714 37.275C59.0714 38.2589 59.2247 38.4022 60.1871 38.3368C60.3399 38.8661 60.3024 38.9377 59.7685 38.9813C59.4497 39.0063 59.1216 39.0343 58.8089 38.9907C58.0842 38.891 57.8405 38.5983 57.7936 37.8821C57.7964 37.8043 57.7871 37.7358 57.7749 37.6206ZM57.6497 34.6687C57.3999 34.7527 57.1683 34.8617 56.9246 34.9053C56.1656 35.0361 55.3997 35.1202 54.6436 35.2603C54.0502 35.3693 53.4375 35.4658 52.8816 35.6869C52.1752 35.9671 51.9502 36.6304 52.2127 37.3435C52.3941 37.8386 52.7719 38.125 53.2688 38.2402C54.6094 38.5454 55.8624 38.2963 56.978 37.5116C57.2747 37.303 57.5653 36.9231 57.6216 36.5805C57.7247 35.9609 57.6497 35.3101 57.6497 34.6687Z" fill="#A183A6"/>
<path d="M119.585 38.8848C119.153 38.8848 118.732 38.8848 118.272 38.8848C118.272 38.3772 118.272 37.8665 118.272 37.3559C118.251 37.3465 118.229 37.3403 118.204 37.3309C118.154 37.3932 118.103 37.4524 118.06 37.5178C117.404 38.4799 116.482 38.9906 115.329 39.1089C114.507 39.193 113.698 39.1619 112.91 38.8941C111.851 38.5298 111.336 37.8105 111.336 36.6957C111.332 34.9426 111.336 33.1864 111.336 31.4333C111.336 31.3212 111.345 31.2091 111.351 31.0752C111.814 31.0752 112.257 31.0752 112.76 31.0752C112.76 31.1997 112.76 31.3181 112.76 31.4395C112.76 33.0214 112.757 34.6032 112.763 36.1881C112.763 36.4715 112.782 36.7642 112.844 37.0382C112.964 37.5613 113.279 37.9724 113.788 38.1437C114.938 38.5329 116.063 38.455 117.075 37.7451C117.835 37.2126 118.16 36.4248 118.172 35.5156C118.188 34.1735 118.178 32.8314 118.178 31.4924C118.178 31.3679 118.178 31.2434 118.178 31.0877C118.65 31.0877 119.103 31.0877 119.581 31.0877C119.585 33.6753 119.585 36.2691 119.585 38.8848Z" fill="#A183A6"/>
<path d="M91.7907 31.072C92.2908 31.072 92.7343 31.072 93.219 31.072C93.219 31.2152 93.219 31.3367 93.219 31.4612C93.219 33.0555 93.219 34.6498 93.219 36.2441C93.219 37.5924 93.7561 38.1872 95.1094 38.3366C95.7376 38.4052 96.353 38.3366 96.9343 38.0875C98.0119 37.6236 98.5871 36.7797 98.6213 35.6276C98.6621 34.2637 98.634 32.8967 98.6372 31.5328C98.6372 31.3958 98.6372 31.2588 98.6372 31.0876C99.106 31.0876 99.5588 31.0876 100.037 31.0876C100.037 33.6783 100.037 36.2721 100.037 38.8878C99.6024 38.8878 99.1838 38.8878 98.7244 38.8878C98.7244 38.3802 98.7244 37.8789 98.7244 37.3807C98.6996 37.3713 98.6776 37.362 98.6527 37.3526C98.5965 37.4243 98.5369 37.4959 98.4872 37.5737C97.831 38.5048 96.9249 38.9999 95.7999 39.112C94.9904 39.193 94.1907 39.1712 93.4126 38.9096C92.3096 38.539 91.794 37.8228 91.7907 36.6707C91.7879 34.927 91.7907 33.1832 91.7907 31.4395C91.7907 31.3274 91.7907 31.2121 91.7907 31.072Z" fill="#A183A6"/>
<path d="M49.1629 38.8815C48.7256 38.8815 48.3473 38.8753 47.9695 38.8847C47.7098 38.8909 47.7445 38.7134 47.7445 38.5546C47.7445 37.0631 47.7445 35.5715 47.7445 34.08C47.7445 33.9087 47.7412 33.7344 47.7319 33.5631C47.6695 32.5075 47.1726 31.894 46.132 31.782C45.5289 31.7166 44.8759 31.7446 44.2915 31.9034C43.0604 32.2397 42.3324 33.289 42.3199 34.5813C42.3073 35.8767 42.3167 37.1751 42.3167 38.4705C42.3167 38.5951 42.3167 38.7165 42.3167 38.8598C41.8355 38.8598 41.3918 38.8598 40.9137 38.8598C40.9075 38.7414 40.8918 38.6293 40.8918 38.5204C40.8918 36.1912 40.8981 33.862 40.8825 31.5329C40.8793 31.2308 40.9575 31.1218 41.2668 31.1499C41.573 31.1748 41.8824 31.1561 42.2292 31.1561C42.2292 31.6948 42.2292 32.2054 42.2292 32.8064C42.3324 32.6912 42.3792 32.6507 42.4105 32.5978C43.1042 31.5048 44.1478 31.0035 45.3946 30.9537C46.0851 30.9256 46.8069 30.9848 47.4726 31.1592C48.6694 31.4706 49.1569 32.1992 49.1597 33.4323C49.163 35.12 49.1597 36.8046 49.1597 38.4923C49.163 38.6075 49.1629 38.7196 49.1629 38.8815Z" fill="#A183A6"/>
<path d="M103.358 35.2914C103.352 35.4222 103.336 35.5561 103.336 35.69C103.333 36.6304 103.327 37.5707 103.339 38.5111C103.343 38.7852 103.28 38.9097 102.977 38.8879C102.671 38.863 102.361 38.8817 102.03 38.8817C102.03 36.2691 102.03 33.6971 102.03 31.0939C102.446 31.0939 102.861 31.0939 103.327 31.0939C103.327 32.2274 103.327 33.3546 103.327 34.4911C104.105 34.6002 104.77 34.5441 105.327 33.9524C106.186 33.0432 107.077 32.162 107.97 31.287C108.092 31.1687 108.298 31.0877 108.47 31.0752C108.911 31.0472 109.358 31.0659 109.838 31.1406C108.508 32.408 107.18 33.6784 105.883 34.9146C107.223 36.182 108.604 37.4867 109.986 38.7914C109.976 38.8194 109.967 38.8474 109.958 38.8755C109.426 38.8755 108.892 38.8848 108.361 38.8661C108.27 38.863 108.173 38.7478 108.095 38.6668C107.298 37.8572 106.505 37.0414 105.708 36.2318C105.57 36.0917 105.423 35.964 105.289 35.8239C104.761 35.2727 104.108 35.17 103.358 35.2914Z" fill="#A183A6"/>
<path d="M71.7675 31.072C72.2297 31.072 72.6516 31.072 73.1049 31.072C73.1049 32.1338 73.1049 33.1832 73.1049 34.2263C73.1579 34.2388 73.1893 34.2575 73.1986 34.2481C73.92 33.5319 74.8421 33.2953 75.8077 33.2486C76.9322 33.1925 78.0357 33.3295 79.0322 33.9274C80.5102 34.8118 80.9133 36.4995 79.8793 37.7263C79.5511 38.1155 79.0946 38.4612 78.6291 38.6605C77.0888 39.3144 75.495 39.3113 73.9107 38.8068C72.5827 38.3865 71.8332 37.4647 71.7924 36.0697C71.7455 34.5564 71.7736 33.0431 71.7675 31.5298C71.7643 31.3927 71.7675 31.2557 71.7675 31.072ZM76.0857 38.5857C76.4921 38.5204 76.9074 38.4861 77.3044 38.3802C78.3104 38.1155 78.9666 37.2686 78.9915 36.2441C79.0168 35.2757 78.4074 34.3665 77.4605 34.0551C76.5043 33.7406 75.5386 33.7219 74.6016 34.1423C73.764 34.5159 73.2797 35.1543 73.2108 36.0729C73.1485 36.9261 73.4921 37.5955 74.2046 38.0626C74.7704 38.4332 75.414 38.5452 76.0857 38.5857Z" fill="#A183A6"/>
<path d="M88.3749 35.3257C87.9933 35.7056 87.6811 36.0948 87.2967 36.3875C86.3311 37.1286 85.1939 37.2033 84.0408 37.0726C83.5594 37.0165 83.0691 36.8795 82.6252 36.6802C81.9441 36.3751 81.488 35.8177 81.466 35.0548C81.4252 33.7407 81.4533 32.4236 81.4533 31.0878C81.916 31.0878 82.3688 31.0878 82.8595 31.0878C82.8595 31.3992 82.8595 31.6949 82.8595 31.9908C82.8595 32.8035 82.8502 33.6193 82.8656 34.432C82.8844 35.4565 83.4221 36.0979 84.428 36.263C85.1967 36.3875 85.9688 36.3533 86.6906 36.0107C87.6558 35.553 88.1902 34.7715 88.2591 33.7189C88.3092 32.9778 88.2778 32.2305 88.2839 31.4832C88.2839 31.3587 88.2839 31.2372 88.2839 31.0909C88.762 31.0909 89.206 31.0909 89.6775 31.0909C89.6775 33.6754 89.6775 36.2568 89.6775 38.86C89.2495 38.86 88.831 38.86 88.3749 38.86C88.3749 37.6704 88.3749 36.5058 88.3749 35.3257Z" fill="#A183A6"/>
<path d="M70.8362 38.8814C70.3398 38.8814 69.9019 38.9001 69.4707 38.8689C69.3708 38.8627 69.249 38.6977 69.196 38.5794C68.2772 36.5958 67.3651 34.6061 66.4524 32.6194C66.4055 32.5167 66.3526 32.4201 66.271 32.2551C66.1838 32.4264 66.1243 32.5416 66.068 32.6599C65.1212 34.6341 64.1747 36.6052 63.2372 38.5824C63.1276 38.8097 63.0057 38.9094 62.7465 38.8938C62.3715 38.8689 61.9936 38.8876 61.5746 38.8876C61.6308 38.7537 61.6622 38.6603 61.7058 38.57C62.9026 36.1599 64.1058 33.7529 65.2965 31.3396C65.3963 31.1372 65.5055 31.05 65.7371 31.0656C66.1932 31.0936 66.743 30.9442 67.0805 31.1497C67.4026 31.3459 67.5118 31.9001 67.7021 32.3018C68.6898 34.3694 69.6741 36.437 70.6613 38.5046C70.7082 38.6043 70.7551 38.707 70.8362 38.8814Z" fill="#A183A6"/>
</g>
<defs>
<clipPath id="clip0">
<rect width="120" height="31.2973" fill="white" transform="translate(0 19)"/>
</clipPath>
</defs>
</svg>
