<svg width="120" height="70" viewBox="0 0 120 70" fill="none" xmlns="http://www.w3.org/2000/svg">
<mask id="mask0" mask-type="alpha" maskUnits="userSpaceOnUse" x="0" y="0" width="120" height="70">
<rect width="120" height="70" fill="#C4C4C4"/>
</mask>
<g mask="url(#mask0)">
</g>
<g clip-path="url(#clip0)">
<path d="M68.7187 0.14917C69.2378 0.216002 69.7583 0.275408 70.2767 0.351015C73.0502 0.756733 75.592 1.70858 77.7265 3.58594C79.9316 5.52609 81.1978 7.98466 81.6487 10.8767C82.272 14.8663 81.0029 18.2491 78.2538 21.0918C76.1956 23.221 73.6335 24.3369 70.6693 24.4834C68.784 24.5765 66.9668 24.2457 65.2013 23.5862C61.7075 22.2806 58.2111 20.9831 54.7152 19.6816C54.6647 19.6627 54.6156 19.6391 54.53 19.602C56.6658 14.092 58.7961 8.59497 60.9554 3.02293C61.1769 3.58122 61.3722 4.06794 61.5634 4.55601C63.8615 10.4298 66.1608 16.3036 68.4514 22.1807C68.5443 22.4183 68.6965 22.4642 68.9065 22.4858C72.9935 22.9111 76.5949 20.9697 78.6407 17.3715C81.32 12.6602 79.4087 5.93653 73.9935 3.45093C71.8604 2.47208 69.6135 2.10011 67.2906 2.09742C62.0058 2.09269 56.721 2.09607 51.4355 2.09607C51.3036 2.09607 51.1722 2.09607 51.0106 2.09607C51.0106 1.4237 51.0106 0.786432 51.0106 0.14917C56.9135 0.14917 62.8158 0.14917 68.7187 0.14917ZM66.251 21.8891C64.4788 17.3634 62.7377 12.9174 60.9649 8.38971C59.6439 11.7981 58.3618 15.1073 57.0799 18.4152C60.1353 19.5729 63.1558 20.7171 66.251 21.8891Z" fill="#A183A6"/>
<path d="M0.647278 48.484C2.01207 48.4367 3.38293 48.3395 4.7208 48.7034C6.41485 49.1638 7.2484 50.4632 7.01611 52.2211C6.78921 53.9392 5.62842 55.018 3.83069 55.1645C3.28463 55.209 2.73655 55.2211 2.14674 55.2501C2.14674 56.8453 2.14674 58.4453 2.14674 60.108C1.61751 60.0796 1.13206 60.054 0.647278 60.0276C0.647278 56.1798 0.647278 52.3319 0.647278 48.484ZM2.16424 49.6829C2.16424 51.1627 2.16424 52.5168 2.16424 53.8676C2.88266 53.9534 3.74316 53.8798 4.31479 53.688C5.21838 53.3857 5.66478 52.7538 5.66276 51.7816C5.66074 50.8771 5.23184 50.2378 4.31749 50.0001C3.63341 49.8219 2.91095 49.7869 2.16424 49.6829Z" fill="#A183A6"/>
<path d="M0.646547 65.9007C0.788614 65.9007 0.930687 65.9007 1.10103 65.9007C1.10103 66.3571 1.10103 66.7797 1.10103 67.3076C1.52454 66.8837 1.88275 66.5246 2.24094 66.1661C2.53787 65.8684 2.53787 65.8684 3.00313 65.9318C2.62473 66.3099 2.24701 66.6866 1.84638 67.0869C2.26047 67.6728 2.66445 68.2439 3.08191 68.834C2.73515 68.9366 2.51835 68.8529 2.34127 68.5572C2.11167 68.1737 1.83629 67.8173 1.57976 67.4494C0.870084 67.7275 1.19058 68.3621 1.07747 68.8724C0.930011 68.8724 0.787945 68.8724 0.645874 68.8724C0.646547 67.8807 0.646547 66.8911 0.646547 65.9007Z" fill="#A183A6"/>
<path d="M76.9309 35.1852C76.9309 35.8509 76.9309 36.476 76.9309 37.122C73.9288 37.122 70.94 37.122 67.9309 37.122C67.9309 36.4908 67.9309 35.865 67.9309 35.1981C69.0809 35.1981 70.2397 35.1981 71.4557 35.1981C71.3843 35.0111 71.3352 34.8781 71.2833 34.7458C70.9319 33.8465 70.5858 32.9454 70.2195 32.0529C70.1778 31.9517 70.0216 31.8288 69.9205 31.8308C66.4301 31.8862 63.1713 30.9141 59.9812 29.6173C58.0198 28.82 56.0504 28.043 54.0843 27.2586C53.9719 27.214 53.8547 27.1803 53.7072 27.131C53.5666 27.4901 53.4346 27.8324 53.2986 28.1726C52.63 29.8387 52.0253 31.5352 51.2739 33.1621C50.4949 34.8484 49.2755 36.1816 47.5203 36.906C43.6797 38.4917 39.1267 36.2235 38.8844 31.4507C38.7389 28.5817 40.3003 26.1589 43.0858 24.8648C44.8162 24.0615 46.6395 23.8042 48.5282 23.9467C51.2208 24.1499 53.745 25.0052 56.2355 25.974C58.4278 26.8266 60.5898 27.7575 62.7929 28.5783C65.2619 29.4985 67.8185 29.9852 70.47 29.8407C70.4922 29.8393 70.5151 29.8401 70.5373 29.8401C70.8376 29.832 71.2113 29.7111 71.4166 29.8468C71.6247 29.9839 71.6691 30.374 71.7795 30.6548C72.333 32.065 72.8895 33.4746 73.4313 34.8902C73.5171 35.1157 73.624 35.1947 73.8662 35.1906C74.8742 35.1771 75.8837 35.1852 76.9309 35.1852ZM51.8395 26.5599C51.7405 26.5241 51.6806 26.4937 51.6173 26.4809C50.7616 26.3074 49.9112 26.0934 49.048 25.9746C47.2489 25.7262 45.4848 25.8706 43.8285 26.6855C42.1317 27.5205 40.9682 28.7842 40.837 30.7642C40.7258 32.4398 41.2592 33.877 42.735 34.7795C44.2466 35.7044 45.8302 35.6881 47.36 34.7843C48.5363 34.0889 49.2823 33.0001 49.7933 31.7654C50.501 30.0554 51.1507 28.3205 51.8395 26.5599Z" fill="#A183A6"/>
<path d="M43.6193 22.7374C43.9479 22.4445 44.2522 22.1151 44.6111 21.8653C45.6116 21.1686 46.7576 20.8668 47.952 20.7406C50.5968 20.4611 53.1393 20.9857 55.6069 21.8572C57.8329 22.6437 60.011 23.5685 62.2168 24.4137C64.2939 25.2096 66.4162 25.8441 68.6341 26.1067C71.6236 26.4605 74.4422 26.0089 76.9876 24.2996C77.0313 24.2706 77.0763 24.2435 77.1396 24.2348C76.824 24.8619 76.3869 25.3918 75.8698 25.8549C74.5178 27.0667 72.8945 27.656 71.1254 27.8937C68.7149 28.2177 66.3798 27.8214 64.1155 27.0309C61.1556 25.9981 58.2247 24.8829 55.2776 23.8129C53.6448 23.2202 52.004 22.6558 50.2743 22.4033C48.0766 22.0827 45.8978 22.0361 43.7735 22.8293C43.7553 22.836 43.731 22.8273 43.7095 22.8259C43.6785 22.7969 43.6489 22.7672 43.6193 22.7374Z" fill="#A183A6"/>
<path d="M69.6005 60.0834C69.0915 60.0834 68.6424 60.0989 68.1966 60.0719C68.0923 60.0658 67.955 59.9342 67.9038 59.8268C67.5294 59.0356 67.1678 58.2384 66.8144 57.4378C66.7309 57.2487 66.6285 57.1745 66.4137 57.1758C64.8321 57.1859 63.2499 57.1853 61.6683 57.1758C61.4561 57.1745 61.3498 57.2433 61.2656 57.4344C60.9121 58.235 60.5371 59.0262 60.1849 59.8281C60.1001 60.0219 59.9958 60.0975 59.7836 60.0888C59.381 60.0719 58.9777 60.084 58.4936 60.084C60.3445 56.0275 62.1753 52.0156 64.0383 47.9335C65.9014 52.0028 67.7368 56.0127 69.6005 60.0834ZM62.0062 55.8007C63.3926 55.8007 64.7055 55.8007 66.0643 55.8007C65.3843 54.2447 64.7224 52.7312 64.0383 51.1664C63.3495 52.7373 62.6849 54.2528 62.0062 55.8007Z" fill="#A183A6"/>
<path d="M49.1363 60.0685C48.6697 60.0685 48.2476 60.0685 47.7783 60.0685C47.7783 59.9409 47.7783 59.8222 47.7783 59.7034C47.7783 58.4099 47.7856 57.1158 47.7722 55.8224C47.7688 55.5226 47.717 55.2182 47.6456 54.9265C47.5258 54.4351 47.2113 54.1145 46.6996 54.0442C46.1778 53.9727 45.7159 54.107 45.386 54.5458C45.0695 54.9664 44.9605 55.4646 44.9503 55.9743C44.9261 57.1995 44.9261 58.4254 44.9167 59.6514C44.9154 59.7837 44.9167 59.9167 44.9167 60.0658C44.4541 60.0658 44.0319 60.0658 43.5781 60.0658C43.5781 57.7355 43.5781 55.4038 43.5781 53.0451C44.0023 53.0451 44.4333 53.0451 44.9119 53.0451C44.9119 53.3003 44.9119 53.5615 44.9119 53.8228C45.46 53.1815 46.0788 52.7656 46.9258 52.8062C47.7614 52.846 48.4004 53.2233 48.8373 53.9902C48.9511 53.8525 49.0515 53.7256 49.1578 53.6034C50.0419 52.5847 51.8437 52.5091 52.7109 53.4603C53.1762 53.9707 53.325 54.6153 53.3365 55.2709C53.364 56.8553 53.3452 58.441 53.3452 60.0551C52.8941 60.0551 52.4537 60.0551 51.9629 60.0551C51.9629 59.9363 51.9629 59.8174 51.9629 59.6979C51.9629 58.4045 51.9676 57.1104 51.9589 55.817C51.9568 55.549 51.9312 55.2762 51.8727 55.0156C51.7589 54.508 51.4821 54.1199 50.9307 54.0449C50.3583 53.9673 49.8594 54.1232 49.5255 54.6343C49.1626 55.1892 49.1477 55.8257 49.139 56.4542C49.1242 57.5451 49.135 58.6368 49.135 59.7277C49.1363 59.8289 49.1363 59.9288 49.1363 60.0685Z" fill="#A183A6"/>
<path d="M22.3842 53.8884C23.9287 52.3762 25.0572 52.4147 26.3439 53.9848C27.0138 52.9432 27.9833 52.6489 29.1476 52.8717C29.8141 52.9993 30.3029 53.3888 30.5325 54.0233C30.6827 54.4392 30.7972 54.8921 30.8065 55.3316C30.8402 56.8499 30.8207 58.3688 30.8207 59.8877C30.8207 59.941 30.8073 59.995 30.7972 60.0646C30.3527 60.0646 29.9218 60.0646 29.4532 60.0646C29.4532 59.9255 29.4532 59.8046 29.4532 59.6845C29.4532 58.4242 29.4599 57.1644 29.4485 55.9047C29.4458 55.6037 29.4061 55.2986 29.3428 55.0042C29.2297 54.475 28.9267 54.1145 28.3611 54.0349C27.7888 53.9545 27.2023 54.1969 26.97 54.7065C26.797 55.0859 26.6657 55.5166 26.6509 55.9291C26.6071 57.1766 26.6287 58.4261 26.6253 59.6744C26.6247 59.7959 26.6253 59.9167 26.6253 60.0605C26.1621 60.0605 25.7311 60.0605 25.2558 60.0605C25.2558 59.9214 25.2564 59.7898 25.2558 59.6581C25.2464 58.2412 25.2565 56.8236 25.2194 55.4072C25.1999 54.6721 24.8397 54.211 24.2943 54.0699C23.656 53.9046 23.0393 54.1698 22.7289 54.7558C22.4468 55.2878 22.3983 55.8717 22.3962 56.459C22.3908 57.6505 22.3949 58.842 22.3949 60.0592C21.9458 60.0592 21.5156 60.0592 21.0611 60.0592C21.0611 57.722 21.0611 55.3904 21.0611 53.0385C21.494 53.0385 21.9162 53.0385 22.3848 53.0385C22.3842 53.3044 22.3842 53.5751 22.3842 53.8884Z" fill="#A183A6"/>
<path d="M88.1592 53.8294C88.8211 53.0787 89.6043 52.756 90.5556 52.8066C91.7825 52.8721 92.5556 53.5573 92.7534 54.7725C92.7934 55.0154 92.8211 55.2632 92.8233 55.5089C92.8327 56.959 92.8327 58.4097 92.8334 59.8597C92.8334 59.9239 92.8196 59.988 92.8109 60.067C92.3709 60.067 91.9491 60.067 91.4858 60.067C91.4792 59.9496 91.4669 59.8321 91.4669 59.7146C91.4654 58.4441 91.4807 57.1737 91.4574 55.9032C91.4502 55.5049 91.3832 55.0945 91.2625 54.7157C91.0996 54.2121 90.7236 54.0069 90.1927 54.0278C89.0283 54.0737 88.184 55.0236 88.1702 56.3278C88.1592 57.441 88.168 58.5541 88.168 59.6667C88.168 59.7882 88.168 59.9104 88.168 60.0575C87.7098 60.0575 87.2792 60.0575 86.8225 60.0575C86.8225 56.018 86.8225 51.9763 86.8225 47.911C87.2603 47.911 87.6894 47.911 88.1592 47.911C88.1592 49.8883 88.1592 51.8589 88.1592 53.8294Z" fill="#A183A6"/>
<path d="M101.01 56.7906C99.1382 56.7906 97.3135 56.7906 95.4895 56.7906C95.4851 57.8795 96.0429 58.722 96.9433 59.015C98.0553 59.3768 99.0756 58.963 99.9047 57.7931C100.082 57.8869 100.268 57.9821 100.449 58.0813C100.625 58.1772 100.798 58.2784 101.043 58.4175C100.793 58.7193 100.584 59.0224 100.326 59.2742C98.5455 61.0097 95.4967 60.5528 94.4516 58.4027C93.6749 56.8048 94.0553 54.6804 95.3375 53.6056C96.4313 52.6895 97.6851 52.5647 98.9709 53.0723C100.233 53.5712 100.799 54.6303 100.966 55.9299C101.002 56.2046 100.996 56.4834 101.01 56.7906ZM95.5222 55.749C96.896 55.749 98.2487 55.749 99.6015 55.749C99.6058 54.8856 98.7716 54.0626 97.8545 54.0114C96.6545 53.9445 95.6349 54.6898 95.5222 55.749Z" fill="#A183A6"/>
<path d="M19.768 56.7812C17.9339 56.7812 16.1214 56.7812 14.3156 56.7812C14.1338 57.5623 14.7216 58.5809 15.5424 58.9461C16.6499 59.4389 17.8208 59.0191 18.6934 57.7898C19.0462 57.9828 19.4038 58.1786 19.8334 58.4135C19.5728 58.7254 19.358 59.0393 19.0887 59.2945C17.5441 60.7594 15.0286 60.6682 13.6982 59.1129C12.3886 57.5818 12.6061 54.8343 14.1681 53.5672C15.2723 52.6714 16.5355 52.5627 17.8107 53.096C19.0873 53.6299 19.63 54.7283 19.7647 56.0555C19.7883 56.2857 19.768 56.5206 19.768 56.7812ZM18.408 55.7463C18.2686 54.6561 17.4545 54.0026 16.3193 54.006C15.2023 54.0094 14.3223 55.0193 14.3075 55.7463C15.6676 55.7463 17.0283 55.7463 18.408 55.7463Z" fill="#A183A6"/>
<path d="M71.0999 56.7827C71.0992 57.8601 71.6554 58.7067 72.5172 59.003C73.6218 59.3831 74.5818 59.0037 75.5367 57.7927C75.8895 57.9877 76.2451 58.1849 76.6277 58.3961C76.0277 59.4269 75.1637 60.0501 74.0437 60.2559C72.1536 60.6029 70.465 59.7449 69.9122 57.979C69.428 56.433 69.6038 54.9607 70.7976 53.7598C71.8008 52.7505 73.0458 52.5879 74.352 52.9821C75.5993 53.3587 76.2575 54.3086 76.5208 55.5453C76.6037 55.9342 76.5993 56.3426 76.6386 56.7827C74.7615 56.7827 72.9397 56.7827 71.0999 56.7827ZM75.232 55.7465C75.1455 54.6745 74.2618 53.969 73.0851 54.0089C72.1247 54.0412 71.1693 54.8919 71.1511 55.7465C72.5044 55.7465 73.8568 55.7465 75.232 55.7465Z" fill="#A183A6"/>
<path d="M35.7415 53.0341C36.1953 53.0341 36.6161 53.0341 37.084 53.0341C37.084 53.1684 37.084 53.2872 37.084 53.4067C37.084 54.5644 37.0786 55.7222 37.0881 56.8799C37.0901 57.1702 37.1129 57.4659 37.1736 57.7494C37.3668 58.6479 37.9263 59.078 38.8239 59.0482C39.6985 59.0186 40.2573 58.5224 40.3637 57.6178C40.4236 57.1067 40.4209 56.5869 40.4257 56.0705C40.4344 55.0708 40.4284 54.071 40.4284 53.0449C40.8795 53.0449 41.3097 53.0449 41.7635 53.0449C41.7736 53.0995 41.7952 53.1617 41.7952 53.2238C41.7932 54.6516 41.8073 56.0793 41.7804 57.5064C41.7548 58.889 40.9461 59.9373 39.7382 60.2229C38.1418 60.6003 36.7682 60.1034 36.1387 58.8586C35.9313 58.4481 35.7731 57.9675 35.7589 57.5132C35.7118 56.032 35.7415 54.5489 35.7415 53.0341Z" fill="#A183A6"/>
<path d="M114.13 54.6973C112.388 53.7765 111.209 53.8642 110.316 54.9557C109.557 55.882 109.563 57.2706 110.301 58.1975C111.053 59.1405 112.439 59.4193 114.129 58.4006C114.129 58.8725 114.138 59.3174 114.121 59.7616C114.118 59.8318 114.012 59.9276 113.932 59.9601C112.611 60.5015 111.298 60.5305 110.077 59.7245C108.852 58.915 108.335 57.7249 108.417 56.258C108.548 53.9324 110.883 51.9369 113.908 53.1547C113.996 53.1905 114.116 53.2965 114.12 53.3748C114.141 53.8075 114.13 54.2429 114.13 54.6973Z" fill="#A183A6"/>
<path d="M119.437 53.9507C119.119 54.2058 118.841 54.4293 118.545 54.6669C118.406 54.5218 118.295 54.3813 118.16 54.2686C117.86 54.0175 117.523 53.9426 117.16 54.1194C116.613 54.3848 116.551 54.9923 117.056 55.3257C117.372 55.5344 117.732 55.6728 118.07 55.8476C118.408 56.0225 118.76 56.1764 119.076 56.3857C120.055 57.0337 120.282 58.2339 119.636 59.2209C118.787 60.5164 116.916 60.7209 115.714 59.6408C115.492 59.4417 115.307 59.202 115.086 58.961C115.437 58.6687 115.754 58.4048 116.081 58.1341C116.249 58.3278 116.399 58.5222 116.572 58.693C116.913 59.0312 117.33 59.1615 117.805 59.0812C118.196 59.0144 118.519 58.6924 118.597 58.3029C118.679 57.8964 118.539 57.5616 118.144 57.3442C117.732 57.1174 117.301 56.9271 116.879 56.7191C116.297 56.4322 115.74 56.1163 115.523 55.4426C115.229 54.5333 115.622 53.5827 116.491 53.0832C117.336 52.5985 118.424 52.7504 119.052 53.4484C119.185 53.597 119.296 53.7657 119.437 53.9507Z" fill="#A183A6"/>
<path d="M77.3847 58.9541C77.7345 58.6638 78.0523 58.3999 78.3694 58.1367C78.544 58.3338 78.6967 58.5275 78.8712 58.6996C79.2043 59.027 79.6087 59.1567 80.0727 59.0844C80.4843 59.0203 80.8065 58.7044 80.8887 58.2919C80.968 57.8903 80.824 57.5514 80.4262 57.3373C79.8836 57.0458 79.3178 56.7973 78.7745 56.5077C78.2007 56.2019 77.8007 55.7537 77.7389 55.0705C77.6531 54.1044 78.1774 53.2802 79.0945 52.9366C80.008 52.5943 80.984 52.9022 81.5622 53.7163C81.6123 53.7878 81.6545 53.8655 81.7127 53.9606C81.4145 54.2003 81.1302 54.4299 80.8487 54.6566C80.6814 54.4967 80.5491 54.3427 80.3905 54.2233C80.088 53.9951 79.7549 53.9519 79.4138 54.1409C78.8938 54.4291 78.8545 55.0097 79.3534 55.3331C79.6618 55.5329 80.0087 55.6719 80.3389 55.8387C80.6487 55.996 80.9651 56.1405 81.2654 56.3133C82.7207 57.1517 82.4349 58.8934 81.5302 59.6913C80.4742 60.6236 78.8509 60.5371 77.8254 59.4753C77.6785 59.3221 77.5505 59.1506 77.3847 58.9541Z" fill="#A183A6"/>
<path d="M83.4262 54.3083C83.1382 54.3083 82.8953 54.3083 82.6255 54.3083C82.6255 53.8722 82.6255 53.4651 82.6255 53.0182C82.8888 53.0182 83.1411 53.0182 83.4277 53.0182C83.4277 51.9273 83.4277 50.8756 83.4277 49.8008C83.8946 49.8008 84.3251 49.8008 84.7971 49.8008C84.7971 50.8567 84.7971 51.9165 84.7971 53.0122C85.1899 53.0122 85.5433 53.0122 85.9193 53.0122C85.9193 53.4456 85.9193 53.8445 85.9193 54.2806C85.5709 54.2806 85.2197 54.2806 84.8298 54.2806C84.8298 56.2221 84.8298 58.1272 84.8298 60.0579C84.3535 60.0579 83.9128 60.0579 83.4269 60.0579C83.4262 58.1461 83.4262 56.241 83.4262 54.3083Z" fill="#A183A6"/>
<path d="M101.595 54.3167C101.595 53.8536 101.595 53.454 101.595 53.028C101.855 53.028 102.098 53.028 102.386 53.028C102.386 51.9425 102.386 50.882 102.386 49.8005C102.861 49.8005 103.291 49.8005 103.756 49.8005C103.756 50.8623 103.756 51.9155 103.756 53.003C104.144 53.003 104.497 53.003 104.881 53.003C104.881 53.4446 104.881 53.853 104.881 54.2985C104.524 54.2985 104.17 54.2985 103.772 54.2985C103.772 56.2393 103.772 58.1437 103.772 60.0663C103.303 60.0663 102.881 60.0663 102.417 60.0663C102.417 58.1633 102.417 56.2589 102.417 54.3174C102.124 54.3167 101.873 54.3167 101.595 54.3167Z" fill="#A183A6"/>
<path d="M9.63675 60.0733C9.15733 60.0733 8.73311 60.0733 8.28271 60.0733C8.28271 57.7309 8.28271 55.3992 8.28271 53.0425C8.6961 53.0425 9.11624 53.0425 9.57813 53.0425C9.57813 53.3686 9.57813 53.6974 9.57813 54.0268C9.97741 53.5886 10.3101 53.1228 10.8675 52.9129C11.4277 52.7023 11.9644 52.8218 12.532 53.0331C12.429 53.4921 12.3293 53.9356 12.2276 54.3893C10.9618 53.692 9.84344 54.4278 9.68184 55.8657C9.60039 56.588 9.6441 57.3252 9.63806 58.0556C9.63202 58.7158 9.63675 59.3773 9.63675 60.0733Z" fill="#A183A6"/>
<path d="M33.9426 60.0671C33.4797 60.0671 33.0585 60.0671 32.6158 60.0671C32.6158 57.7192 32.6158 55.3889 32.6158 53.0383C33.0625 53.0383 33.4925 53.0383 33.9426 53.0383C33.9426 55.3849 33.9426 57.7138 33.9426 60.0671Z" fill="#A183A6"/>
<path d="M107.088 60.0669C106.644 60.0669 106.222 60.0669 105.775 60.0669C105.775 57.7278 105.775 55.3947 105.775 53.0401C106.207 53.0401 106.636 53.0401 107.088 53.0401C107.088 55.3779 107.088 57.7022 107.088 60.0669Z" fill="#A183A6"/>
<path d="M87.5462 68.2572C87.7593 67.6233 87.9739 66.9887 88.1869 66.3548C88.3455 65.885 88.3462 65.8857 88.8888 65.9127C88.8888 66.8821 88.8888 67.8528 88.8888 68.8472C88.7811 68.8472 88.6662 68.8472 88.5258 68.8472C88.5258 68.1215 88.5258 67.3945 88.5258 66.6674C88.5033 66.662 88.4822 66.6573 88.4597 66.6519C88.2102 67.387 87.96 68.1222 87.7157 68.8438C87.4175 68.9276 87.272 68.8431 87.1869 68.5495C86.9971 67.8967 86.7651 67.2561 86.5011 66.6188C86.5011 67.3526 86.5011 68.0864 86.5011 68.8533C86.3622 68.86 86.2459 68.8654 86.1084 68.8721C86.1084 67.8798 86.1084 66.9078 86.1084 65.9363C86.6589 65.8513 86.6568 65.8519 86.832 66.3731C87.0415 66.9996 87.2546 67.6239 87.4669 68.2497C87.4931 68.2525 87.52 68.2545 87.5462 68.2572Z" fill="#A183A6"/>
<path d="M97.592 69.4894C97.4538 69.4894 97.3491 69.4894 97.2254 69.4894C97.216 69.2828 97.2065 69.0965 97.1971 68.8906C96.5418 68.8906 95.896 68.8906 95.2283 68.8906C95.2189 69.0864 95.2102 69.2734 95.2 69.4914C95.0851 69.4968 94.9811 69.5015 94.8596 69.5069C94.8596 69.1775 94.8596 68.8771 94.8596 68.5477C95.2327 68.4916 95.2618 68.1507 95.2989 67.8726C95.3658 67.3737 95.3672 66.8661 95.3912 66.3618C95.3978 66.2194 95.3927 66.0763 95.3927 65.9169C96.0523 65.9169 96.6756 65.9169 97.3345 65.9169C97.3345 66.6562 97.3309 67.3831 97.3374 68.1109C97.3382 68.2695 97.2472 68.4849 97.5302 68.5308C97.5614 68.5355 97.5869 68.6638 97.5898 68.7353C97.5971 68.9716 97.592 69.2079 97.592 69.4894ZM96.8945 68.4781C96.8945 67.7288 96.8945 67.0173 96.8945 66.3051C96.5207 66.3051 96.1709 66.3051 95.8574 66.3051C95.7789 67.0483 95.7047 67.7552 95.6291 68.4781C96.0051 68.4781 96.4371 68.4781 96.8945 68.4781Z" fill="#A183A6"/>
<path d="M55.9558 68.8602C55.8198 68.8602 55.7094 68.8602 55.5552 68.8602C55.5552 68.1284 55.5552 67.4061 55.5552 66.6838C55.5283 66.6756 55.5013 66.6683 55.4737 66.6601C55.2434 67.0227 55.0125 67.3852 54.7829 67.7477C54.6146 68.013 54.4227 68.2675 54.2853 68.5483C54.1412 68.842 53.9433 68.9351 53.6215 68.8406C53.6215 67.874 53.6215 66.9004 53.6215 65.9142C53.744 65.9142 53.8538 65.9142 54.0032 65.9142C54.0032 66.6683 54.0032 67.4142 54.0032 68.1601C54.0288 68.1682 54.0544 68.177 54.08 68.1852C54.2072 67.9846 54.3365 67.7855 54.4624 67.5837C54.7472 67.126 55.0482 66.6777 55.3068 66.2052C55.4569 65.9304 55.6427 65.842 55.9551 65.927C55.9558 66.889 55.9558 67.8597 55.9558 68.8602Z" fill="#A183A6"/>
<path d="M110.568 68.8561C110.433 68.8561 110.313 68.8561 110.15 68.8561C110.15 68.1251 110.15 67.4041 110.15 66.6831C110.126 66.6777 110.101 66.6716 110.076 66.6662C109.679 67.2974 109.267 67.9198 108.889 68.5625C108.726 68.8393 108.541 68.9446 108.225 68.8359C108.225 67.878 108.225 66.9146 108.225 65.9189C108.346 65.9122 108.463 65.9061 108.621 65.898C108.621 66.6602 108.621 67.4034 108.621 68.1473C108.648 68.1568 108.676 68.1669 108.703 68.1763C108.817 67.9948 108.933 67.8139 109.046 67.6316C109.341 67.155 109.652 66.6865 109.923 66.1963C110.076 65.9209 110.265 65.8426 110.568 65.9324C110.568 66.8971 110.568 67.8692 110.568 68.8561Z" fill="#A183A6"/>
<path d="M79.4509 68.8288C79.4509 67.8729 79.4509 66.9103 79.4509 65.9247C79.5753 65.9247 79.6902 65.9247 79.832 65.9247C79.832 66.6801 79.832 67.4287 79.832 68.2651C79.9346 68.1355 79.9913 68.0775 80.0327 68.0099C80.4 67.4192 80.7644 66.8266 81.1295 66.2345C81.3447 65.8849 81.344 65.8849 81.7884 65.9226C81.7884 66.89 81.7884 67.8607 81.7884 68.8511C81.6698 68.8511 81.5513 68.8511 81.3913 68.8511C81.3913 68.1214 81.3913 67.3889 81.3913 66.6565C81.3673 66.6503 81.3433 66.6436 81.3193 66.6376C80.9149 67.2775 80.4996 67.9107 80.1113 68.5608C79.9578 68.8173 79.7898 68.9503 79.4509 68.8288Z" fill="#A183A6"/>
<path d="M9.60033 68.2144C10.0104 67.5501 10.4299 66.8912 10.8257 66.2188C10.9745 65.9657 11.1375 65.8166 11.4694 65.9312C11.4694 66.8811 11.4694 67.8519 11.4694 68.8557C11.3624 68.8611 11.2452 68.8664 11.0923 68.8739C11.0923 68.1212 11.0923 67.386 11.0923 66.6502C11.0681 66.6421 11.0445 66.6334 11.0203 66.6253C10.8028 66.9689 10.5847 67.3118 10.3672 67.6554C10.1813 67.9497 9.97735 68.2346 9.81575 68.5417C9.66899 68.8206 9.48382 68.9529 9.15051 68.8361C9.15051 67.8843 9.15051 66.9115 9.15051 65.9198C9.27175 65.9198 9.38688 65.9198 9.52353 65.9198C9.52353 66.6827 9.52353 67.4333 9.52353 68.184C9.54979 68.1941 9.57473 68.2042 9.60033 68.2144Z" fill="#A183A6"/>
<path d="M17.9048 65.9132C18.0381 65.9132 18.1472 65.9132 18.2846 65.9132C18.2846 66.672 18.2846 67.42 18.2846 68.2598C18.3902 68.1302 18.4482 68.0728 18.4899 68.0053C18.863 67.4051 19.2332 66.803 19.6043 66.2022C19.8049 65.8775 19.8049 65.8774 20.2338 65.9329C20.2338 66.8928 20.2338 67.8555 20.2338 68.8565C20.1227 68.8613 20.0075 68.8667 19.8521 68.8734C19.8521 68.1166 19.8521 67.3835 19.8521 66.6498C19.8278 66.6423 19.8029 66.6349 19.7786 66.6281C19.3807 67.2573 18.9693 67.8791 18.5916 68.5204C18.4286 68.7972 18.2523 68.951 17.9048 68.8471C17.9048 67.8864 17.9048 66.9144 17.9048 65.9132Z" fill="#A183A6"/>
<path d="M64.2224 67.0987C64.2224 67.2459 64.2224 67.3431 64.2224 67.4774C63.7046 67.4774 63.1943 67.4774 62.6549 67.4774C62.6549 67.8217 62.6549 68.1296 62.6549 68.4908C63.2212 68.4908 63.7962 68.4908 64.3826 68.4908C64.3826 68.6406 64.3826 68.7378 64.3826 68.8539C63.6696 68.8539 62.9667 68.8539 62.2422 68.8539C62.2422 67.8791 62.2422 66.9077 62.2422 65.9187C62.9458 65.9187 63.6359 65.9187 64.3503 65.9187C64.3503 66.026 64.3503 66.13 64.3503 66.2731C63.7827 66.2731 63.2279 66.2731 62.6495 66.2731C62.6495 66.5634 62.6495 66.8173 62.6495 67.0994C63.1579 67.0987 63.6696 67.0987 64.2224 67.0987Z" fill="#A183A6"/>
<path d="M101.76 65.9311C101.76 66.8978 101.76 67.8692 101.76 68.8555C101.636 68.8555 101.527 68.8555 101.377 68.8555C101.377 68.1291 101.377 67.3967 101.377 66.6642C101.35 66.6547 101.323 66.6453 101.296 66.6358C101.191 66.7979 101.084 66.9592 100.982 67.1226C100.682 67.5965 100.384 68.0711 100.085 68.5463C99.8684 68.892 99.8684 68.8926 99.4291 68.846C99.4291 67.8773 99.4291 66.9066 99.4291 65.9189C99.5585 65.9189 99.6749 65.9189 99.816 65.9189C99.816 66.6797 99.816 67.4284 99.816 68.177C99.8364 68.1858 99.8574 68.1939 99.8771 68.2027C100.017 67.9826 100.158 67.7639 100.295 67.5431C100.567 67.1051 100.856 66.6757 101.101 66.222C101.255 65.9365 101.441 65.8319 101.76 65.9311Z" fill="#A183A6"/>
<path d="M77.5287 67.394C77.5273 68.5315 76.6393 69.2106 75.5978 68.8711C74.9375 68.6557 74.552 67.9334 74.6669 67.1253C74.7942 66.2383 75.3862 65.7636 76.2778 65.8346C77.0306 65.8947 77.5295 66.5171 77.5287 67.394ZM77.1237 67.4736C77.0924 67.2428 77.0866 67.1064 77.0546 66.9761C76.9433 66.5191 76.5957 66.2268 76.152 66.2052C75.6662 66.1815 75.3069 66.4206 75.1593 66.8944C75.0306 67.3062 75.0437 67.7187 75.2662 68.1008C75.6328 68.7306 76.5455 68.7455 76.9098 68.1149C77.0335 67.9003 77.072 67.635 77.1237 67.4736Z" fill="#A183A6"/>
<path d="M103.815 68.8802C103.815 67.8567 103.815 66.8934 103.815 65.9159C103.94 65.9159 104.049 65.9159 104.203 65.9159C104.203 66.7571 104.203 67.6035 104.203 68.4744C104.733 68.4744 105.217 68.4744 105.736 68.4744C105.736 67.6137 105.736 66.7753 105.736 65.9193C105.877 65.9193 105.985 65.9193 106.143 65.9193C106.143 66.2379 106.143 66.5592 106.143 66.8806C106.143 67.2742 106.136 67.6677 106.147 68.0612C106.152 68.2402 106.043 68.4839 106.36 68.5365C106.387 68.5413 106.409 68.6513 106.41 68.7128C106.416 68.9598 106.413 69.2068 106.413 69.4911C106.284 69.4971 106.17 69.5025 106.028 69.5086C106.028 69.2906 106.028 69.1029 106.028 68.8802C105.281 68.8802 104.559 68.8802 103.815 68.8802Z" fill="#A183A6"/>
<path d="M92.96 67.1099C92.9527 67.2585 92.9484 67.3577 92.9425 67.4914C92.4175 67.4914 91.9055 67.4914 91.3738 67.4914C91.3738 67.835 91.3738 68.1435 91.3738 68.4932C91.9527 68.4932 92.5178 68.4932 93.1011 68.4932C93.1113 68.6295 93.1178 68.7254 93.1265 68.8476C92.3971 68.8476 91.6873 68.8476 90.9571 68.8476C90.9571 67.8775 90.9571 66.9075 90.9571 65.9198C91.6655 65.9198 92.3651 65.9198 93.0786 65.9198C93.0786 66.0298 93.0786 66.127 93.0786 66.2634C92.5186 66.2634 91.9644 66.2634 91.3825 66.2634C91.3825 66.5611 91.3825 66.8203 91.3825 67.1106C91.8982 67.1099 92.4087 67.1099 92.96 67.1099Z" fill="#A183A6"/>
<path d="M47.5794 67.4969C47.0158 67.4969 46.5048 67.4969 45.9782 67.4969C45.9782 67.8378 45.9782 68.1477 45.9782 68.4954C46.558 68.4954 47.1236 68.4954 47.706 68.4954C47.7127 68.631 47.7174 68.7296 47.7235 68.8498C47.007 68.8498 46.3068 68.8498 45.5817 68.8498C45.5817 67.8844 45.5817 66.9137 45.5817 65.9227C46.2799 65.9227 46.9795 65.9227 47.6938 65.9227C47.6938 66.0334 47.6938 66.138 47.6938 66.271C47.1195 66.271 46.5613 66.271 45.983 66.271C45.983 66.5532 45.983 66.8077 45.983 67.0987C46.4906 67.0987 47.0111 67.0987 47.5578 67.0987C47.5652 67.2377 47.5706 67.3424 47.5794 67.4969Z" fill="#A183A6"/>
<path d="M32.8785 67.8457C32.9971 67.9105 33.1614 67.9456 33.2253 68.0455C33.4933 68.4634 33.7814 68.6287 34.2252 68.5558C34.6514 68.4863 34.846 68.1906 34.9362 67.8011C34.9537 67.7255 34.9611 67.6478 34.9786 67.5358C34.5417 67.5358 34.1222 67.5358 33.6764 67.5358C33.667 67.4116 33.6603 67.3191 33.6502 67.1928C34.0972 67.1928 34.5194 67.1928 34.9422 67.1928C34.9254 66.6778 34.6985 66.3402 34.3208 66.2376C33.8683 66.1141 33.5398 66.266 33.2395 66.6866C33.1742 66.7784 33.0011 66.7925 32.8072 66.8716C32.921 66.3038 33.197 66.0101 33.6441 65.8907C34.1646 65.7523 34.6527 65.8117 35.0325 66.2376C35.5341 66.8 35.5354 67.9611 35.0412 68.5288C34.6628 68.9636 34.1767 69.0209 33.6569 68.8812C33.1835 68.7543 32.9001 68.4364 32.8011 67.9625C32.8281 67.9233 32.853 67.8842 32.8785 67.8457Z" fill="#A183A6"/>
<path d="M113.031 68.8542C112.876 68.8542 112.759 68.8542 112.625 68.8542C112.625 67.876 112.625 66.9126 112.625 65.9163C112.742 65.9102 112.86 65.9048 113.014 65.8973C113.014 66.3011 113.014 66.6892 113.014 67.0956C113.526 67.0956 114.003 67.0956 114.522 67.0956C114.522 66.7101 114.522 66.324 114.522 65.9197C114.672 65.9197 114.78 65.9197 114.915 65.9197C114.915 66.8877 114.915 67.8584 114.915 68.8494C114.801 68.8494 114.684 68.8494 114.535 68.8494C114.535 68.4052 114.535 67.9705 114.535 67.5121C114.025 67.5121 113.548 67.5121 113.032 67.5121C113.031 67.9516 113.031 68.3958 113.031 68.8542Z" fill="#A183A6"/>
<path d="M24.6613 65.9387C24.2426 66.3506 23.8601 66.7266 23.4629 67.1174C23.8655 67.6838 24.2661 68.2482 24.6762 68.8254C24.3402 68.9368 24.1234 68.8672 23.9442 68.5641C23.7127 68.1726 23.4285 67.8114 23.1727 67.4456C22.4771 67.7399 22.7754 68.3562 22.6744 68.8523C22.5512 68.8523 22.4327 68.8523 22.2926 68.8523C22.2926 67.8803 22.2926 66.9088 22.2926 65.9192C22.4213 65.9192 22.5397 65.9192 22.7047 65.9192C22.7047 66.3526 22.7047 66.7806 22.7047 67.2092C22.7323 67.2208 22.7592 67.2329 22.7869 67.2444C23.1282 66.8947 23.485 66.5585 23.8062 66.1912C24.0291 65.9347 24.2742 65.8361 24.6613 65.9387Z" fill="#A183A6"/>
<path d="M7.08627 68.8592C6.95565 68.8592 6.84657 68.8592 6.70316 68.8592C6.70316 68.0113 6.70316 67.1736 6.70316 66.3048C6.33149 66.3048 5.99281 66.3048 5.57267 66.3048C5.57267 66.811 5.5794 67.3221 5.56931 67.8331C5.56527 68.0221 5.54036 68.2152 5.49188 68.3975C5.37203 68.8417 5.13839 68.9726 4.64014 68.8862C4.63273 68.7957 4.62532 68.6992 4.61792 68.6121C4.65226 68.5892 4.67044 68.5662 4.68794 68.5669C5.08991 68.577 5.13435 68.2739 5.14983 67.9937C5.17676 67.5232 5.16532 67.0507 5.16868 66.5788C5.17004 66.3675 5.16868 66.1562 5.16868 65.9233C5.81843 65.9233 6.44057 65.9233 7.08627 65.9233C7.08627 66.8893 7.08627 67.8594 7.08627 68.8592Z" fill="#A183A6"/>
<path d="M116.976 68.8712C116.976 67.8646 116.976 66.9006 116.976 65.9191C117.109 65.9191 117.228 65.9191 117.385 65.9191C117.385 66.3079 117.385 66.6954 117.385 67.116C117.711 67.116 118 67.1106 118.289 67.1173C118.877 67.1301 119.223 67.4758 119.217 68.0361C119.212 68.5552 118.871 68.8644 118.287 68.8704C117.863 68.8745 117.437 68.8712 116.976 68.8712ZM117.409 68.4776C117.75 68.4776 118.071 68.4897 118.391 68.4742C118.657 68.4614 118.796 68.2873 118.797 68.0307C118.798 67.7728 118.684 67.5507 118.406 67.5251C118.079 67.4947 117.748 67.5183 117.409 67.5183C117.409 67.8464 117.409 68.1549 117.409 68.4776Z" fill="#A183A6"/>
<path d="M73.1236 68.8338C72.7382 68.9526 72.5347 68.8122 72.3617 68.5232C72.1374 68.15 71.8675 67.8036 71.6156 67.4438C70.9181 67.7313 71.2137 68.3545 71.1268 68.8533C70.9975 68.8533 70.8811 68.8533 70.7457 68.8533C70.7457 67.8779 70.7457 66.9152 70.7457 65.9168C70.8595 65.9107 70.9766 65.9046 71.1282 65.8972C71.1282 66.3434 71.1282 66.7755 71.1282 67.321C71.5577 66.8909 71.9321 66.5473 72.2674 66.1686C72.4889 65.9188 72.7273 65.8486 73.0429 65.9222C72.6579 66.3036 72.2796 66.6776 71.8789 67.0739C72.3038 67.674 72.7078 68.2458 73.1236 68.8338Z" fill="#A183A6"/>
<path d="M15.4596 67.0938C15.4596 66.8839 15.4596 66.6949 15.4596 66.5052C15.4596 66.3162 15.4596 66.1271 15.4596 65.9199C15.6017 65.9199 15.7175 65.9199 15.8481 65.9199C15.8481 66.8967 15.8481 67.86 15.8481 68.8469C15.7296 68.8469 15.6145 68.8469 15.4596 68.8469C15.4596 68.4068 15.4596 67.9633 15.4596 67.511C14.9338 67.511 14.4463 67.511 13.9258 67.511C13.9258 67.9674 13.9258 68.4014 13.9258 68.8523C13.7851 68.8523 13.6774 68.8523 13.544 68.8523C13.544 67.883 13.544 66.9122 13.544 65.9192C13.6545 65.9124 13.7622 65.905 13.911 65.8956C13.911 66.2979 13.911 66.6847 13.911 67.0931C14.4375 67.0938 14.925 67.0938 15.4596 67.0938Z" fill="#A183A6"/>
<path d="M68.7023 66.8652C68.5845 66.789 68.4215 66.7403 68.3568 66.6324C68.027 66.0821 67.2365 66.0423 66.8581 66.5736C66.5659 66.9834 66.5551 67.7989 66.8406 68.212C67.0406 68.5016 67.3328 68.584 67.6654 68.5644C68.0081 68.5442 68.2384 68.3484 68.34 68.0405C68.4235 67.788 68.5542 67.7273 68.7851 67.8076C68.775 68.3463 68.4242 68.7777 67.8896 68.908C67.2627 69.0612 66.6662 68.8189 66.4056 68.2707C66.1417 67.7158 66.1289 67.1359 66.376 66.5723C66.6144 66.0288 67.0924 65.7891 67.7583 65.8344C68.2343 65.8668 68.6289 66.1666 68.7649 66.6006C68.7811 66.6519 68.7817 66.708 68.7891 66.7619C68.7602 66.7971 68.7312 66.8315 68.7023 66.8652Z" fill="#A183A6"/>
<path d="M39.7063 66.8541C39.5784 66.7812 39.3986 66.7406 39.3313 66.6306C39.002 66.0939 38.2351 66.0406 37.8581 66.5483C37.547 66.9675 37.5275 67.787 37.8217 68.213C38.0224 68.5032 38.3146 68.5829 38.6465 68.564C38.9899 68.5444 39.2208 68.3466 39.3198 68.0401C39.4033 67.7823 39.5346 67.7303 39.7635 67.8072C39.7521 68.3379 39.4155 68.7598 38.8957 68.8981C38.2984 69.0568 37.7046 68.8583 37.4332 68.3547C37.0912 67.7202 37.0784 67.0545 37.4386 66.4234C37.7376 65.9002 38.2479 65.7713 38.8068 65.8448C39.2613 65.9043 39.5979 66.1459 39.744 66.6036C39.7602 66.6542 39.7595 66.7109 39.7669 66.765C39.7467 66.7946 39.7265 66.8243 39.7063 66.8541Z" fill="#A183A6"/>
<path d="M33.2626 48.8776C33.7932 48.8763 34.2087 49.2793 34.21 49.7964C34.2114 50.3068 33.7838 50.7415 33.2761 50.7442C32.7698 50.7476 32.3321 50.3169 32.326 49.8099C32.3207 49.2982 32.7408 48.8797 33.2626 48.8776Z" fill="#A183A6"/>
<path d="M106.446 48.8787C106.969 48.8821 107.385 49.3 107.377 49.8171C107.369 50.3248 106.932 50.7507 106.423 50.746C105.927 50.7413 105.479 50.2863 105.484 49.7935C105.489 49.2912 105.927 48.8754 106.446 48.8787Z" fill="#A183A6"/>
<path d="M28.8602 68.8327C28.5337 68.9502 28.3963 68.8334 28.2966 68.5255C28.0919 67.897 28.2596 68.0186 27.5688 68.005C27.4456 68.0023 27.321 68.0145 27.1991 68.0023C27.0214 67.9841 26.9305 68.0584 26.8907 68.2292C26.8659 68.3372 26.7978 68.4371 26.7796 68.5458C26.7285 68.8482 26.5547 68.9299 26.2457 68.8435C26.4026 68.4169 26.5582 67.9909 26.7163 67.5663C26.8921 67.0937 27.0753 66.6232 27.2456 66.1486C27.3035 65.9866 27.3661 65.8901 27.5708 65.8921C27.7694 65.8941 27.8401 65.9744 27.8994 66.1432C28.2138 67.0411 28.5383 67.9355 28.8602 68.8327ZM27.556 66.3687C27.3863 66.8466 27.2497 67.2315 27.1096 67.6256C27.4085 67.6256 27.6705 67.6256 27.9714 67.6256C27.8381 67.2213 27.7135 66.8446 27.556 66.3687Z" fill="#A183A6"/>
<path d="M59.7641 65.9113C59.9277 65.9113 60.0381 65.9113 60.1747 65.9113C60.1747 66.8907 60.1747 67.8615 60.1747 68.8518C60.0542 68.8518 59.9358 68.8518 59.7802 68.8518C59.7802 68.4184 59.7802 67.9843 59.7802 67.5314C59.4793 67.5705 59.2166 67.6165 58.9527 67.6374C58.3137 67.688 58.006 67.4004 58.002 66.7639C58.0006 66.4857 58.002 66.2069 58.002 65.9153C58.1467 65.9153 58.2545 65.9153 58.4073 65.9153C58.4073 66.2002 58.4006 66.4776 58.4087 66.755C58.4187 67.1054 58.5514 67.2357 58.9043 67.256C58.9931 67.2614 59.0847 67.2593 59.1729 67.2485C59.3601 67.2249 59.5466 67.1925 59.7647 67.1588C59.7641 66.7483 59.7641 66.3487 59.7641 65.9113Z" fill="#A183A6"/>
<path d="M42.3698 66.2773C42.0137 66.2773 41.7153 66.2773 41.3949 66.2773C41.3949 66.1389 41.3949 66.0343 41.3949 65.9149C42.1745 65.9149 42.9462 65.9149 43.7534 65.9149C43.7589 66.0161 43.7635 66.1207 43.7716 66.2699C43.4363 66.2699 43.1286 66.2699 42.7906 66.2699C42.7906 67.1509 42.7906 67.99 42.7906 68.8493C42.6412 68.8493 42.5233 68.8493 42.3705 68.8493C42.3698 68.0122 42.3698 67.1738 42.3698 66.2773Z" fill="#A183A6"/>
<path d="M51.8049 65.9255C51.8049 66.0409 51.8049 66.1401 51.8049 66.2752C51.4817 66.2752 51.172 66.2752 50.8307 66.2752C50.8307 67.1487 50.8307 67.9871 50.8307 68.8478C50.6838 68.8478 50.5687 68.8478 50.4213 68.8478C50.4213 68.0027 50.4213 67.1643 50.4213 66.2833C50.0859 66.2833 49.779 66.2833 49.455 66.2833C49.4436 66.1449 49.4362 66.049 49.4261 65.9261C50.2246 65.9255 51.0023 65.9255 51.8049 65.9255Z" fill="#A183A6"/>
<path d="M119.588 65.9113C119.722 65.9113 119.833 65.9113 119.966 65.9113C119.966 66.8907 119.966 67.8602 119.966 68.8504C119.846 68.8504 119.729 68.8504 119.588 68.8504C119.588 67.8831 119.588 66.9137 119.588 65.9113Z" fill="#A183A6"/>
<path d="M79.9949 65.1112C80.2078 65.2253 80.3931 65.4021 80.5814 65.4042C80.7645 65.4062 80.9506 65.2314 81.1374 65.1328C81.1781 65.4562 81.0225 65.6479 80.6897 65.6918C80.2936 65.7438 80.0646 65.5662 79.9949 65.1112Z" fill="#A183A6"/>
</g>
<defs>
<clipPath id="clip0">
<rect width="120" height="70" fill="white"/>
</clipPath>
</defs>
</svg>
