<svg width="14" height="14" viewBox="0 0 14 14" fill="none" xmlns="http://www.w3.org/2000/svg">
<mask id="mask0" mask-type="alpha" maskUnits="userSpaceOnUse" x="0" y="0" width="14" height="14">
<rect width="14" height="14" fill="#C4C4C4"/>
</mask>
<g mask="url(#mask0)">
</g>
<g clip-path="url(#clip0)">
<path d="M11.0535 10.137L11.0745 10.137L12.8941 10.1379C12.891 10.1274 12.8865 10.1157 12.88 10.1031C12.7773 9.90337 12.6379 9.7157 12.4689 9.51044C12.1957 9.18074 11.8953 8.89403 11.5711 8.58468C11.4477 8.46687 11.3208 8.34577 11.1906 8.21777C10.9792 8.01002 10.755 7.74608 10.7201 7.39453C10.6849 7.03907 10.8567 6.73813 11.0294 6.49524C11.0295 6.49505 11.0297 6.49485 11.0298 6.49466L11.0535 10.137ZM11.0535 10.137L11.0326 10.1388M11.0535 10.137L11.0326 10.1388M11.0326 10.1388C10.7134 10.1655 10.4503 10.0476 10.1887 9.77894L10.1886 9.77877M11.0326 10.1388L10.1886 9.77877M10.1886 9.77877C10.0136 9.59924 9.85306 9.41825 9.68396 9.22759C9.59907 9.13188 9.51202 9.03372 9.41989 8.93209L9.41937 8.93151M10.1886 9.77877L9.41937 8.93151M9.41937 8.93151C9.30317 8.80372 9.15795 8.65656 8.97163 8.53467L8.97153 8.5346M9.41937 8.93151L8.97153 8.5346M8.97153 8.5346C8.76859 8.4019 8.50209 8.30634 8.21258 8.37612C7.92053 8.44651 7.72652 8.65567 7.60814 8.8732C7.39525 9.26425 7.35797 9.67811 7.34221 10.0065L7.34214 10.008M8.97153 8.5346L7.34214 10.008M7.34214 10.008C7.33979 10.0602 7.33588 10.0982 7.33181 10.1255C7.30114 10.1302 7.2576 10.1347 7.19663 10.1375L7.19584 10.1376M7.34214 10.008L7.19584 10.1376M7.19584 10.1376C6.27592 10.1813 5.44025 10.0401 4.67385 9.59835L4.67384 9.59834M7.19584 10.1376L4.67384 9.59834M4.67384 9.59834C3.98728 9.2026 3.44064 8.6362 2.94655 7.96185L4.67384 9.59834ZM2.32213 3.26596C1.68408 3.25527 1.04685 3.25438 0.409534 3.26685C0.0257357 3.27351 -0.0885532 3.46162 0.067724 3.81205M2.32213 3.26596L0.524374 3.60841M2.32213 3.26596C2.58116 3.26978 2.75264 3.41945 2.85265 3.66597C3.19746 4.5201 3.61937 5.33273 4.14895 6.08597L2.32213 3.26596ZM0.067724 3.81205L0.416295 3.65661L0.417154 3.65623L0.484735 3.62609M0.067724 3.81205L0.416293 3.65646L0.417151 3.65608L0.484815 3.62588M0.067724 3.81205L0.484815 3.62588M0.484735 3.62609C0.479029 3.64124 0.471249 3.65761 0.460677 3.67461C0.44726 3.69618 0.432654 3.71344 0.418541 3.7271C0.418205 3.72742 0.41787 3.72774 0.417535 3.72806C0.388984 3.7554 0.362619 3.76803 0.352422 3.77197C0.350501 3.77271 0.349488 3.77304 0.349497 3.77307C0.349534 3.7732 0.369289 3.76763 0.418206 3.76678L0.418206 3.76678L0.419317 3.76676C0.477543 3.76562 0.535775 3.76459 0.594014 3.76367C0.570721 3.71199 0.547509 3.66024 0.524374 3.60841M0.484735 3.62609L0.524374 3.60841M0.484735 3.62609C0.484762 3.62602 0.484788 3.62595 0.484815 3.62588M0.524374 3.60841L0.484815 3.62588M7.28106 3.5H5.47703C5.61222 3.68444 5.68743 3.89871 5.71986 4.11856C5.81602 4.76172 5.80734 5.39627 5.75489 6.01327L5.75475 6.01489C5.73742 6.21115 5.7014 6.44268 5.60533 6.67173L7.28106 3.5ZM7.28106 3.5C7.28342 3.50064 7.28566 3.50126 7.28779 3.50187C7.29441 3.5267 7.3016 3.56211 7.3093 3.61406L7.31114 6.04431C7.3088 6.17986 7.33787 6.37407 7.40504 6.55579C7.46734 6.72437 7.6159 7.02643 7.94904 7.14977L7.95758 7.15293L7.96622 7.15578C8.24283 7.24689 8.4819 7.16941 8.64733 7.0605C8.76584 6.98248 8.86708 6.87192 8.91317 6.82158C8.91908 6.81513 8.92408 6.80967 8.9281 6.80539L8.92873 6.80471C9.50861 6.18473 9.91178 5.46357 10.2557 4.75805C10.4146 4.43479 10.5493 4.10321 10.6744 3.78634L10.6745 3.78624C10.679 3.77473 10.6831 3.76554 10.6866 3.7583C10.6902 3.75824 10.6942 3.75824 10.6987 3.75832L10.6987 3.75841L10.708 3.75842L12.833 3.76033H12.8334C12.8459 3.76033 12.8568 3.76039 12.8665 3.76052C12.7176 4.1851 12.451 4.55727 12.1331 5.00092L12.1157 5.02513C12.1157 5.02521 12.1156 5.02529 12.1155 5.02537L7.28106 3.5ZM7.84163 10.0305C7.82071 10.4939 7.68165 10.6158 7.21957 10.637L7.84163 10.0305ZM4.35483 7.03988C4.52471 7.15703 4.78514 7.27384 5.07885 7.18654C5.37129 7.09961 5.52603 6.86084 5.60528 6.67185L4.35483 7.03988ZM4.63858 6.62819L4.35467 7.03977L4.63858 6.62819ZM2.389 3.85315C2.38907 3.85331 2.38913 3.85347 2.3892 3.85363C2.38924 3.85373 2.38928 3.85383 2.38932 3.85393L2.85264 3.66598L2.389 3.85315ZM2.33898 3.76869C2.33899 3.76869 2.33831 3.76827 2.33875 3.76861C2.33886 3.76865 2.33894 3.76868 2.33897 3.76869L2.33898 3.76869Z" stroke="white"/>
</g>
<defs>
<clipPath id="clip0">
<rect width="14" height="7.77778" fill="white" transform="translate(0 3)"/>
</clipPath>
</defs>
</svg>
