<svg width="14" height="15" viewBox="0 0 14 15" fill="none" xmlns="http://www.w3.org/2000/svg">
<mask id="mask0" mask-type="alpha" maskUnits="userSpaceOnUse" x="0" y="0" width="14" height="15">
<rect y="0.0203819" width="14" height="14" fill="#C4C4C4"/>
</mask>
<g mask="url(#mask0)">
</g>
<g clip-path="url(#clip0)">
<path d="M11.0535 10.1574L11.0745 10.1574L12.8941 10.1583C12.891 10.1478 12.8865 10.1361 12.88 10.1235C12.7773 9.92376 12.6379 9.73609 12.4689 9.53083C12.1957 9.20113 11.8953 8.91441 11.5711 8.60507C11.4477 8.48725 11.3208 8.36616 11.1906 8.23815C10.9792 8.03041 10.755 7.76647 10.7201 7.41491C10.6849 7.05946 10.8567 6.75852 11.0294 6.51563C11.0295 6.51543 11.0297 6.51524 11.0298 6.51504L11.0535 10.1574ZM11.0535 10.1574L11.0326 10.1592M11.0535 10.1574L11.0326 10.1592M11.0326 10.1592C10.7134 10.1859 10.4503 10.068 10.1887 9.79932L10.1886 9.79916M11.0326 10.1592L10.1886 9.79916M10.1886 9.79916C10.0136 9.61963 9.85306 9.43864 9.68396 9.24798C9.59907 9.15226 9.51202 9.05411 9.41989 8.95248L9.41937 8.9519M10.1886 9.79916L9.41937 8.9519M9.41937 8.9519C9.30317 8.82411 9.15795 8.67695 8.97163 8.55505L8.97153 8.55498M9.41937 8.9519L8.97153 8.55498M8.97153 8.55498C8.76859 8.42228 8.50209 8.32673 8.21258 8.39651C7.92053 8.4669 7.72652 8.67605 7.60814 8.89359C7.39525 9.28463 7.35797 9.6985 7.34221 10.0269L7.34214 10.0283M8.97153 8.55498L7.34214 10.0283M7.34214 10.0283C7.33979 10.0805 7.33588 10.1186 7.33181 10.1458C7.30114 10.1506 7.2576 10.1551 7.19663 10.1579L7.19584 10.158M7.34214 10.0283L7.19584 10.158M7.19584 10.158C6.27592 10.2017 5.44025 10.0605 4.67385 9.61873L4.67384 9.61873M7.19584 10.158L4.67384 9.61873M4.67384 9.61873C3.98728 9.22299 3.44064 8.65659 2.94655 7.98223L4.67384 9.61873ZM2.32213 3.28635C1.68408 3.27565 1.04685 3.27476 0.409534 3.28724C0.0257357 3.2939 -0.0885532 3.48201 0.067724 3.83244M2.32213 3.28635L0.524374 3.6288M2.32213 3.28635C2.58116 3.29017 2.75264 3.43984 2.85265 3.68636C3.19746 4.54049 3.61937 5.35312 4.14895 6.10636L2.32213 3.28635ZM0.067724 3.83244L0.416295 3.67699L0.417154 3.67661L0.484735 3.64647M0.067724 3.83244L0.416293 3.67685L0.417151 3.67647L0.484815 3.64626M0.067724 3.83244L0.484815 3.64626M0.484735 3.64647C0.479029 3.66162 0.471249 3.678 0.460677 3.695C0.44726 3.71657 0.432654 3.73382 0.418541 3.74748C0.418205 3.74781 0.41787 3.74813 0.417535 3.74845C0.388984 3.77578 0.362619 3.78842 0.352422 3.79236C0.350501 3.7931 0.349488 3.79342 0.349497 3.79345C0.349534 3.79358 0.369289 3.78801 0.418206 3.78716L0.418206 3.78716L0.419317 3.78714C0.477543 3.786 0.535775 3.78498 0.594014 3.78406C0.570721 3.73238 0.547509 3.68062 0.524374 3.6288M0.484735 3.64647L0.524374 3.6288M0.484735 3.64647C0.484762 3.6464 0.484788 3.64633 0.484815 3.64626M0.524374 3.6288L0.484815 3.64626M7.28106 3.52039H5.47703C5.61222 3.70483 5.68743 3.91909 5.71986 4.13895C5.81602 4.7821 5.80734 5.41666 5.75489 6.03365L5.75475 6.03528C5.73742 6.23154 5.7014 6.46307 5.60533 6.69212L7.28106 3.52039ZM7.28106 3.52039C7.28342 3.52102 7.28566 3.52165 7.28779 3.52226C7.29441 3.54708 7.3016 3.58249 7.3093 3.63445L7.31114 6.06469C7.3088 6.20025 7.33787 6.39445 7.40504 6.57618C7.46734 6.74475 7.6159 7.04682 7.94904 7.17016L7.95758 7.17332L7.96622 7.17617C8.24283 7.26727 8.4819 7.1898 8.64733 7.08089C8.76584 7.00287 8.86708 6.89231 8.91317 6.84196C8.91908 6.83551 8.92408 6.83005 8.9281 6.82577L8.92873 6.8251C9.50861 6.20511 9.91178 5.48396 10.2557 4.77844C10.4146 4.45517 10.5493 4.1236 10.6744 3.80673L10.6745 3.80662C10.679 3.79512 10.6831 3.78592 10.6866 3.77869C10.6902 3.77862 10.6942 3.77862 10.6987 3.77871L10.6987 3.7788L10.708 3.7788L12.833 3.78071H12.8334C12.8459 3.78071 12.8568 3.78078 12.8665 3.7809C12.7176 4.20549 12.451 4.57766 12.1331 5.0213L12.1157 5.04552C12.1157 5.0456 12.1156 5.04568 12.1155 5.04576L7.28106 3.52039ZM7.84163 10.0509C7.82071 10.5143 7.68165 10.6362 7.21957 10.6574L7.84163 10.0509ZM4.35483 7.06027C4.52471 7.17741 4.78514 7.29423 5.07885 7.20692C5.37129 7.12 5.52603 6.88123 5.60528 6.69224L4.35483 7.06027ZM4.63858 6.64858L4.35467 7.06015L4.63858 6.64858ZM2.389 3.87353C2.38907 3.87369 2.38913 3.87385 2.3892 3.87401C2.38924 3.87411 2.38928 3.87422 2.38932 3.87432L2.85264 3.68636L2.389 3.87353ZM2.33898 3.78908C2.33899 3.78908 2.33831 3.78865 2.33875 3.789C2.33886 3.78904 2.33894 3.78906 2.33897 3.78907L2.33898 3.78908Z" stroke="white"/>
</g>
<defs>
<clipPath id="clip0">
<rect width="14" height="7.77778" fill="white" transform="translate(0 3.02039)"/>
</clipPath>
</defs>
</svg>
