<svg width="14" height="15" viewBox="0 0 14 15" fill="none" xmlns="http://www.w3.org/2000/svg">
<mask id="mask0" mask-type="alpha" maskUnits="userSpaceOnUse" x="0" y="0" width="14" height="15">
<rect y="0.0203819" width="14" height="14" fill="#C4C4C4"/>
</mask>
<g mask="url(#mask0)">
<path fill-rule="evenodd" clip-rule="evenodd" d="M6.9995 11.8204H6.99576C6.57332 11.8176 2.83876 11.7846 1.78068 11.5074C1.04123 11.3149 0.457504 10.7501 0.25819 10.0336C-0.0186655 9.02683 -0.00104132 7.08841 0.000881047 6.93363C-0.000934482 6.77957 -0.0187723 4.82512 0.257336 3.81002L0.25819 3.80712C0.45526 3.09891 1.05212 2.5166 1.77887 2.32354L1.78442 2.32209C2.83054 2.05577 6.57247 2.02318 6.99576 2.02039H7.00335C7.42682 2.02318 11.1713 2.05618 12.2197 2.33378C12.9573 2.52581 13.5405 3.08991 13.7404 3.80537C14.0276 4.82118 14.001 6.77988 13.9981 6.94522C14.0002 7.10807 14.0169 9.0291 13.7417 10.041L13.7409 10.0439C13.5415 10.7603 12.9579 11.3251 12.2176 11.5179L12.2146 11.5187C11.1686 11.7849 7.42651 11.8175 7.00335 11.8204H6.9995ZM1.31459 4.08168C1.07264 4.97344 1.09425 6.88892 1.09466 6.92625L1.09467 6.94063C1.08741 7.47574 1.11293 9.02545 1.3147 9.75945C1.41254 10.1109 1.7004 10.3894 2.06548 10.4844C2.84616 10.6889 5.88784 10.7533 6.99954 10.7609C8.11414 10.7533 11.1603 10.6907 11.9352 10.4944C12.2991 10.3989 12.586 10.1214 12.6845 9.76955C12.8865 9.02482 12.9118 7.48268 12.9044 6.95097L12.9045 6.93421C12.9145 6.39267 12.8948 4.82487 12.6855 4.08499L12.6849 4.08282C12.5866 3.72979 12.2987 3.45137 11.9336 3.35628C11.1605 3.15153 8.11391 3.08738 6.99954 3.07983C5.88571 3.08738 2.84253 3.14987 2.06526 3.34605C1.70713 3.44227 1.41276 3.73062 1.31459 4.08168ZM5.60535 4.77497V9.06576L9.43351 6.92042L5.60535 4.77497Z" fill="white"/>
</g>
</svg>
