<svg width="14" height="14" viewBox="0 0 14 14" fill="none" xmlns="http://www.w3.org/2000/svg">
<mask id="mask0" mask-type="alpha" maskUnits="userSpaceOnUse" x="0" y="0" width="14" height="14">
<rect width="14" height="14" fill="#C4C4C4"/>
</mask>
<g mask="url(#mask0)">
<path fill-rule="evenodd" clip-rule="evenodd" d="M6.9995 11.8H6.99576C6.57332 11.7972 2.83876 11.7642 1.78068 11.487C1.04123 11.2945 0.457504 10.7297 0.25819 10.0132C-0.0186655 9.00644 -0.00104132 7.06803 0.000881047 6.91325C-0.000934482 6.75918 -0.0187723 4.80473 0.257336 3.78963L0.25819 3.78674C0.45526 3.07852 1.05212 2.49622 1.77887 2.30315L1.78442 2.3017C2.83054 2.03539 6.57247 2.00279 6.99576 2H7.00335C7.42682 2.00279 11.1713 2.0358 12.2197 2.3134C12.9573 2.50543 13.5405 3.06952 13.7404 3.78498C14.0276 4.8008 14.001 6.7595 13.9981 6.92483C14.0002 7.08769 14.0169 9.00872 13.7417 10.0206L13.7409 10.0235C13.5415 10.7399 12.9579 11.3047 12.2176 11.4975L12.2146 11.4983C11.1686 11.7645 7.42651 11.7971 7.00335 11.8H6.9995ZM1.31459 4.06129C1.07264 4.95305 1.09425 6.86854 1.09466 6.90587L1.09467 6.92024C1.08741 7.45536 1.11293 9.00506 1.3147 9.73906C1.41254 10.0905 1.7004 10.369 2.06548 10.464C2.84616 10.6686 5.88784 10.7329 6.99954 10.7405C8.11414 10.7329 11.1603 10.6704 11.9352 10.474C12.2991 10.3785 12.586 10.1011 12.6845 9.74916C12.8865 9.00444 12.9118 7.46229 12.9044 6.93058L12.9045 6.91383C12.9145 6.37229 12.8948 4.80448 12.6855 4.0646L12.6849 4.06243C12.5866 3.70941 12.2987 3.43099 11.9336 3.3359C11.1605 3.13115 8.11391 3.06699 6.99954 3.05944C5.88571 3.06699 2.84253 3.12949 2.06526 3.32566C1.70713 3.42188 1.41276 3.71024 1.31459 4.06129ZM5.60535 4.75458V9.04538L9.43351 6.90004L5.60535 4.75458Z" fill="white"/>
</g>
</svg>
