<svg width="120" height="70" viewBox="0 0 120 70" fill="none" xmlns="http://www.w3.org/2000/svg">
<mask id="mask0" mask-type="alpha" maskUnits="userSpaceOnUse" x="0" y="0" width="120" height="70">
<rect width="120" height="70" fill="#C4C4C4"/>
</mask>
<g mask="url(#mask0)">
</g>
<g clip-path="url(#clip0)">
<path d="M119.914 34.6271C119.193 35.2751 118.524 36.0052 117.731 36.5545C116.803 37.1992 115.815 37.8274 114.762 38.209C112.599 38.9885 110.706 38.2221 109.505 36.2618C109.281 35.8967 109.117 35.4954 108.919 35.1139C108.695 34.6797 108.484 34.6304 108.159 34.9955C107.72 35.4823 107.349 36.0283 106.908 36.5118C106.621 36.8275 106.292 37.117 105.94 37.3505C105.509 37.6367 105.087 37.5314 104.857 37.0611C104.63 36.594 104.396 36.1039 104.304 35.6007C104.077 34.3705 103.925 33.124 103.751 31.8806C103.731 31.7359 103.705 31.5485 103.774 31.4399C103.915 31.2228 104.1 30.9301 104.307 30.8873C104.511 30.8479 104.919 31.0386 104.972 31.2097C105.143 31.7491 105.222 32.328 105.275 32.897C105.341 33.6042 105.327 34.3146 105.39 35.0218C105.406 35.2191 105.571 35.4066 105.667 35.5974C105.854 35.4889 106.088 35.423 106.219 35.2685C106.601 34.831 106.937 34.3541 107.299 33.9035C107.569 33.568 107.829 33.2193 108.132 32.92C108.817 32.2392 109.465 32.328 109.962 33.1667C110.2 33.568 110.334 34.0351 110.604 34.4133C111.091 35.0941 111.611 35.7553 112.178 36.3704C112.816 37.0644 113.662 37.1992 114.561 37.0446C116.121 36.7749 117.405 35.9329 118.659 35.0284C118.874 34.8738 119.064 34.683 119.291 34.5646C119.476 34.4692 119.703 34.4528 119.911 34.4034C119.914 34.4791 119.914 34.5547 119.914 34.6271Z" fill="#A183A6"/>
<path d="M17.3459 19.0081C21.9545 19.1462 26.5763 21.2874 29.8813 25.8824C34.2233 31.9114 33.5583 40.085 28.3341 45.3937C24.7263 49.0578 20.2855 50.7057 15.1733 50.3406C9.90301 49.9656 5.65649 47.6106 2.6543 43.2426C-1.714 36.8814 -0.57831 28.323 5.23511 23.2017C8.33279 20.4717 12.2139 19.0081 17.3459 19.0081ZM16.569 19.8205C15.3313 19.8172 14.1133 19.9586 12.9118 20.2514C6.47946 21.8236 1.71612 27.3264 1.13346 33.9178C0.856944 37.0392 1.52849 39.9633 3.19417 42.6341C6.82509 48.4559 13.9059 50.5971 19.7193 49.2288C26.4643 47.6435 31.3758 41.7789 31.7314 34.8651C31.975 30.132 30.2533 26.1883 26.5434 23.1952C23.6432 20.8533 20.2559 19.8665 16.569 19.8205Z" fill="#A183A6"/>
<path d="M81.9625 36.3407C81.3239 36.8406 80.7244 37.3537 80.0859 37.801C79.0755 38.5082 77.9758 39.018 76.7313 39.1463C74.76 39.3502 73.443 38.4654 72.877 36.5676C72.801 36.3176 72.7388 36.0677 72.6499 35.7387C71.402 36.5545 70.0854 36.8966 68.6202 36.4953C68.6039 36.811 68.64 37.0873 68.5644 37.3241C68.4918 37.5445 68.2978 37.8932 68.163 37.8899C67.9393 37.8833 67.6232 37.6925 67.5175 37.4919C67.3595 37.1893 67.3432 36.811 67.2775 36.4656C67.2281 36.2091 67.1951 35.9525 67.1422 35.5907C66.9284 35.7387 66.7768 35.8539 66.6158 35.9558C65.6874 36.5545 64.8084 37.2485 63.8242 37.7287C61.8622 38.6858 59.9037 38.324 58.3368 36.8044C57.8296 36.3111 57.4119 35.7256 56.9575 35.1796C56.8291 35.025 56.7106 34.8606 56.5427 34.6369C56.3679 34.8276 56.2395 34.979 56.1047 35.1204C55.5783 35.6795 55.0746 36.2617 54.5146 36.7847C54.0015 37.2649 53.3496 37.1695 52.9906 36.5643C52.7768 36.2025 52.6089 35.7815 52.5432 35.3671C52.3753 34.3343 52.2667 33.2883 52.1546 32.2457C52.1314 32.0253 52.1185 31.7622 52.2203 31.5845C52.3324 31.3872 52.5694 31.1537 52.7635 31.1438C52.9511 31.1339 53.2706 31.3543 53.323 31.5352C53.4514 31.9562 53.4746 32.4167 53.5007 32.8607C53.5472 33.6074 53.5338 34.3573 53.6064 35.1006C53.6291 35.3276 53.804 35.6598 53.9847 35.7157C54.1561 35.7717 54.4622 35.5743 54.6331 35.4098C54.8998 35.1533 55.1141 34.8375 55.3314 34.5349C55.5946 34.1698 55.8282 33.785 56.0884 33.4199C56.3615 33.035 56.6514 32.6174 57.1946 32.67C57.7274 32.7226 57.8232 33.2258 58.0533 33.6107C58.5442 34.4231 59.0183 35.2684 59.64 35.9756C60.7891 37.2781 62.2637 37.607 63.8143 36.8209C64.8316 36.3045 65.717 35.5184 66.6356 34.8211C66.7768 34.7125 66.8198 34.433 66.8459 34.2257C66.9052 33.8014 66.8756 33.3574 66.9778 32.9463C67.0306 32.739 67.3072 32.4299 67.4583 32.443C67.679 32.4595 67.9886 32.6864 68.0672 32.8969C68.2025 33.2521 68.2153 33.6633 68.2321 34.0547C68.2844 35.1171 68.7358 35.5677 69.802 35.4493C71.4612 35.2618 72.5872 34.525 72.5936 32.7653C72.5936 32.397 72.6168 31.9825 72.7812 31.67C72.9096 31.4234 73.2716 31.2984 73.5318 31.1175C73.68 31.3313 73.9333 31.5352 73.9565 31.7622C74.0123 32.3147 73.9269 32.8838 73.9565 33.4396C74.0158 34.479 74.0291 35.5348 74.2232 36.5512C74.4074 37.5083 75.0395 37.9787 76.0138 37.88C76.8336 37.7977 77.7062 37.6103 78.4168 37.2156C79.5723 36.5775 80.6227 35.7453 81.6923 34.9592C81.8933 34.8112 82.0183 34.5119 82.1071 34.2586C82.558 32.9331 83.279 31.7819 84.3654 30.9004C84.7442 30.5912 85.2178 30.3149 85.6889 30.2228C87.3773 29.8906 88.3225 30.6241 88.4805 32.3377C88.5397 32.9693 88.4805 33.6107 88.5131 34.2455C88.5496 34.9526 88.5427 35.6763 88.7042 36.3571C88.9215 37.2814 89.5536 37.6629 90.4815 37.4688C91.0775 37.3471 91.6899 37.1531 92.2163 36.8538C93.3985 36.1729 94.5407 35.4131 95.676 34.6566C95.8311 34.5514 95.9427 34.2652 95.9397 34.0646C95.9299 33.1666 95.8508 32.2687 95.8341 31.3707C95.8178 30.5386 96.1274 30.2195 96.96 30.2952C97.681 30.361 98.4217 30.4498 99.1062 30.6767C100.581 31.1668 101.427 32.3114 101.483 33.7027C101.539 35.1269 100.621 36.6959 99.317 37.2386C98.6523 37.5149 97.9244 37.6432 97.118 37.8668C97.118 38.3734 97.1313 38.949 97.115 39.5213C97.0622 41.3007 97.0094 43.0769 96.9304 44.8563C96.9106 45.2806 96.802 45.7049 96.6968 46.1226C96.6671 46.2344 96.4958 46.3792 96.3871 46.3792C96.2755 46.3825 96.0909 46.2443 96.0647 46.1358C95.9792 45.7772 95.9101 45.4023 95.9066 45.0339C95.8933 42.2217 95.9002 39.4128 95.9002 36.6005C95.9002 36.3966 95.9002 36.1959 95.9002 35.9328C95.762 35.9855 95.676 36.0052 95.6039 36.0447C94.2049 36.8011 92.8321 37.607 91.4069 38.3108C89.5141 39.2483 88.1081 38.6792 87.3017 36.7222C87.1338 36.3111 87.0252 35.8769 86.8706 35.3967C86.7718 35.5019 86.6963 35.5875 86.6138 35.6697C86.0015 36.2716 85.4385 36.936 84.7605 37.4557C83.5225 38.4063 82.555 38.0609 82.0775 36.5841C82.0316 36.5051 81.9951 36.4229 81.9625 36.3407ZM97.2005 31.7227C97.2005 33.3771 97.2005 34.9921 97.2005 36.6334C98.359 36.5939 99.2908 36.2058 99.8271 35.2125C100.298 34.3441 100.377 33.41 99.7353 32.5614C99.1032 31.7326 98.2439 31.4925 97.2005 31.7227ZM83.3155 35.4526C83.3452 35.7223 83.3383 35.9361 83.3975 36.1269C83.5392 36.5972 83.9244 36.7518 84.2997 36.4426C85.6918 35.3013 86.6499 33.8869 86.8538 32.0582C86.8834 31.7983 86.7783 31.3971 86.5941 31.2754C86.4163 31.1602 86.0049 31.2425 85.7842 31.3773C84.2533 32.3279 83.5654 33.7916 83.3155 35.4526Z" fill="#A183A6"/>
<path d="M41.8738 30.4792C43.6449 32.7685 45.3303 35.1268 47.7893 36.7286C49.1521 37.6167 50.5778 38.4061 51.9768 39.2383C52.1314 39.3303 52.2928 39.4126 52.4207 39.5902C52.2662 39.577 52.1116 39.5704 51.957 39.5441C47.8453 38.8501 44.5172 36.8931 42.1109 33.4493C41.864 33.0974 41.6368 32.729 41.3603 32.4001C41.2155 32.2291 40.9883 32.1271 40.7974 31.9922C40.6789 32.2093 40.4913 32.4165 40.4518 32.6468C40.3695 33.1632 40.3464 33.6894 40.33 34.2124C40.3003 35.1465 40.2937 36.084 40.2707 37.0214C40.2674 37.2088 40.2707 37.4226 40.1851 37.5706C40.0436 37.8042 39.8263 37.9949 39.642 38.2022C39.428 38.0015 39.0758 37.8272 39.0297 37.5904C38.9243 37.0674 38.9243 36.5115 38.9639 35.9787C39.1613 33.4033 39.4444 30.8345 39.5794 28.2557C39.6387 27.0914 39.4247 25.9139 39.3292 24.7462C39.2963 24.3548 39.2206 23.9667 39.2206 23.5753C39.2239 22.8484 39.4642 22.6017 40.172 22.5063C40.748 22.4306 41.1233 22.6609 41.2286 23.3253C41.3373 24.0193 41.3867 24.7429 41.334 25.4402C41.2418 26.723 41.0542 27.9992 40.8863 29.4563C41.9035 29.2853 42.8779 29.2129 43.7963 28.9497C45.4126 28.4827 46.8117 27.6472 47.8058 26.2263C48.0559 25.8678 48.4378 25.4041 48.902 25.7034C49.3826 26.0125 49.0633 26.5257 48.8427 26.9072C48.1251 28.1406 47.0421 28.9761 45.7253 29.4431C44.6357 29.8312 43.4967 30.0714 42.3775 30.3739C42.203 30.4167 42.0253 30.4463 41.8738 30.4792Z" fill="#A183A6"/>
<path d="M30.8623 34.8869C30.8425 36.094 30.6319 37.0248 29.9241 37.7879C29.8846 37.8307 29.8615 37.9096 29.8648 37.9688C29.878 39.6792 29.3052 41.1955 28.3111 42.5638C27.9029 43.1262 27.4255 43.6262 26.8297 43.9979C26.7507 44.0472 26.6717 44.113 26.5828 44.1294C26.1319 44.2248 25.8784 44.5767 25.5624 44.8596C24.6538 45.6622 23.7617 46.4845 22.8038 47.2278C21.7306 48.06 20.5192 48.3099 19.209 47.7903C19.1268 47.7573 19.0116 47.7771 18.9227 47.81C17.8034 48.2145 16.6678 48.5764 15.4761 48.6652C14.3272 48.754 13.1981 48.6158 12.1842 48.0205C11.888 47.8462 11.6509 47.5765 11.3843 47.3528C11.302 47.2837 11.2131 47.2179 11.1144 47.1785C10.0544 46.7772 8.98455 46.3923 7.92786 45.9779C7.20035 45.6918 6.5288 45.3004 5.97576 44.7346C5.41616 44.1689 5.06065 43.5078 5.0409 42.6921C5.03759 42.5966 4.99808 42.4881 4.94213 42.4125C4.73473 42.1296 4.50759 41.8632 4.30021 41.5803C3.71096 40.7745 3.09868 39.9851 2.55223 39.1529C2.01565 38.3339 1.78193 37.4261 2.05186 36.4427C2.09795 36.2782 2.14074 36.1006 2.2395 35.969C2.44689 35.696 2.41397 35.4329 2.35471 35.1204C2.10124 33.8179 1.93006 32.5055 2.12429 31.1767C2.3218 29.8281 2.92421 28.7395 4.17841 28.0849C4.25741 28.0422 4.32654 27.9468 4.35946 27.8612C4.91249 26.4436 5.7124 25.1806 6.73621 24.0655C7.34519 23.4044 8.0727 22.9538 9.0043 22.9111C9.03063 22.9111 9.05695 22.9012 9.08001 22.9078C9.58035 23.0558 9.93917 22.7795 10.3375 22.5361C11.5094 21.8125 12.7307 21.181 14.0836 20.852C15.2424 20.5692 16.3353 20.6909 17.3426 21.3816C17.4413 21.4474 17.5961 21.4671 17.7211 21.454C19.6699 21.25 21.5364 21.5526 23.3042 22.4012C24.0119 22.74 24.5583 23.2564 24.7427 24.0688C24.7592 24.1445 24.8513 24.2136 24.9238 24.2596C25.2068 24.4339 25.4965 24.5984 25.7862 24.7628C27.0865 25.5029 28.0839 26.5554 28.8608 27.8152C29.2822 28.4993 29.5027 29.246 29.3579 30.065C29.3447 30.1406 29.3645 30.2393 29.4106 30.3018C30.1348 31.3346 30.464 32.5121 30.7043 33.7225C30.7898 34.1731 30.826 34.6336 30.8623 34.8869ZM4.82032 28.0718C5.01453 28.1408 5.17912 28.1869 5.33384 28.2592C5.98895 28.5618 6.18317 29.315 5.75522 29.8939C5.54124 30.1867 5.21537 30.2426 4.88287 30.213C4.60635 30.19 4.44505 30.0025 4.35946 29.7492C4.26729 29.4762 4.42859 29.2262 4.7479 29.144C5.00796 29.0749 5.11986 29.1572 5.19561 29.4762C5.20218 29.4992 5.21863 29.519 5.23512 29.5453C5.47211 29.5354 5.55769 29.3776 5.58406 29.1769C5.61038 28.9631 5.51161 28.8118 5.31082 28.7395C4.8302 28.5585 4.39896 28.7032 4.00723 28.9829C3.31594 29.4762 2.91433 30.1702 2.68719 30.9695C2.40738 31.9661 2.42713 32.9792 2.57198 33.9922C2.62794 34.3902 2.71682 34.7849 2.78595 35.1632C3.04271 35.0842 3.2501 34.9987 3.46407 34.956C3.90847 34.8672 4.28045 35.0217 4.55368 35.3671C4.82691 35.7157 4.82032 36.117 4.65573 36.5084C4.45822 36.9788 3.66488 37.0972 3.32252 36.7124C3.15135 36.5216 3.16451 36.3111 3.26327 36.0907C3.35215 35.8999 3.51016 35.8111 3.70108 35.8703C3.82618 35.9098 3.92493 36.0315 4.06978 36.14C4.20145 36.0578 4.27058 35.8703 4.22449 35.6598C4.17511 35.4395 3.9776 35.4592 3.80643 35.4625C3.30936 35.4658 3.0065 35.7585 2.78266 36.1598C2.30534 37.0281 2.39422 37.8998 2.76949 38.7714C3.20731 39.7976 3.86897 40.6758 4.60306 41.5014C4.7874 41.7086 4.9849 41.906 5.189 42.1198C5.29764 41.9717 5.37996 41.8434 5.47867 41.7283C5.8408 41.3073 6.35433 41.2251 6.9008 41.4915C7.30569 41.6889 7.4966 42.1263 7.40114 42.646C7.31225 43.1328 6.93369 43.3433 6.46954 43.1657C6.21606 43.067 6.06134 42.7875 6.10416 42.5013C6.14035 42.2645 6.33127 42.1131 6.62426 42.0967C6.67033 42.0934 6.71971 42.0967 6.78885 42.0967C6.68351 41.85 6.49917 41.7875 6.28189 41.8073C5.89675 41.8402 5.66964 42.1165 5.62682 42.5967C5.56756 43.2611 5.82105 43.8137 6.25556 44.2972C7.56243 45.7477 9.32361 46.2937 11.1506 46.7903C11.1275 46.6424 11.1045 46.5272 11.0913 46.4121C11.0387 45.8464 11.3119 45.4253 11.8123 45.297C12.3916 45.1491 13.0467 45.4286 13.2475 45.9121C13.3792 46.2279 13.2179 46.7015 12.9348 46.8266C12.5858 46.9778 12.1974 46.8495 12.0559 46.5371C11.9143 46.2213 12.1118 45.9352 12.4574 45.9648C12.5496 45.9714 12.6385 45.9943 12.7274 46.0108C12.7372 45.9845 12.7471 45.9615 12.7603 45.9352C12.6418 45.8792 12.5266 45.7937 12.4015 45.774C12.0986 45.7246 11.8188 45.8003 11.6246 46.0569C11.4436 46.297 11.4896 46.5601 11.6048 46.8101C11.8682 47.3758 12.3093 47.7475 12.9085 47.9218C14.3042 48.3231 15.7098 48.3165 17.1154 47.9942C17.652 47.8692 18.1721 47.6883 18.7416 47.5205C18.6429 47.3791 18.5836 47.3002 18.5309 47.2146C18.261 46.7805 18.261 46.343 18.5309 45.9121C18.7844 45.5043 19.1827 45.5175 19.581 45.5734C20.0254 45.6326 20.3645 46.093 20.3217 46.5371C20.2921 46.8495 20.0287 47.037 19.6699 47.0009C19.344 46.968 19.1893 46.7706 19.2321 46.4384C19.2453 46.3397 19.265 46.2444 19.2848 46.1325C18.8437 46.297 18.7251 46.7575 19.028 47.06C19.344 47.3725 19.7292 47.5403 20.1769 47.5567C21.0723 47.5929 21.8755 47.2837 22.5668 46.7673C23.3667 46.172 24.0942 45.4845 24.8447 44.83C25.039 44.659 25.2101 44.4583 25.401 44.261C24.6538 43.9748 24.4036 43.5571 24.5353 42.8795C24.6044 42.5342 24.7789 42.2677 25.1245 42.1724C25.5064 42.0638 25.8916 42.0671 26.2174 42.3401C26.4907 42.5704 26.5104 42.9815 26.28 43.2084C26.0068 43.4749 25.6381 43.4485 25.3813 43.1427C25.3122 43.0604 25.2529 42.9749 25.1838 42.8828C24.9007 43.2841 24.9731 43.6327 25.4109 43.7676C25.6743 43.8498 26.0068 43.8828 26.2536 43.7906C26.6256 43.6492 27.0042 43.4321 27.284 43.1558C28.6633 41.7908 29.2822 40.0936 29.348 38.176C29.3513 38.1135 29.3316 38.0478 29.3283 38.0181C29.0024 37.9787 28.7028 37.9721 28.4164 37.903C27.9127 37.7814 27.679 37.4524 27.6626 36.936C27.6527 36.5348 27.8799 36.196 28.2814 36.0184C28.6369 35.8638 28.953 35.9065 29.2065 36.1565C29.3645 36.3111 29.4501 36.4887 29.348 36.7091C29.2492 36.9163 29.0024 37.0479 28.7752 36.9985C28.6534 36.9722 28.5349 36.913 28.4164 36.8703C28.2518 37.3275 28.4296 37.6037 28.897 37.538C29.1439 37.5018 29.4171 37.3867 29.5949 37.2189C29.8023 37.0215 29.957 36.7453 30.0722 36.4756C30.2961 35.9526 30.3751 35.3901 30.3553 34.8211C30.3092 33.3903 29.8648 32.0746 29.134 30.8544C29.0913 30.7853 29.0353 30.7228 28.9859 30.6537C28.5217 31.1274 28.0313 31.1998 27.5045 30.8905C27.1095 30.6603 26.9384 30.1209 27.126 29.7065C27.2972 29.3348 27.8272 29.1934 28.153 29.4368C28.3407 29.5782 28.3934 29.8578 28.2683 30.0584C28.1629 30.2261 28.0016 30.2327 27.7515 30.0979C27.6889 30.065 27.5704 30.0386 27.5342 30.0749C27.4749 30.1275 27.4223 30.236 27.4288 30.315C27.4486 30.5551 27.6329 30.6636 27.8436 30.7064C28.2749 30.7919 28.7357 30.5123 28.8707 30.088C29.0123 29.644 29.0123 29.1999 28.8839 28.7526C28.7258 28.2 28.4328 27.7198 28.0773 27.2823C27.1852 26.1904 26.089 25.345 24.8744 24.6379C24.8414 24.6181 24.8019 24.6149 24.7657 24.605C24.4662 25.4964 24.1008 25.7529 23.2712 25.6739C22.8169 25.6312 22.5174 25.345 22.4516 24.8944C22.3791 24.3912 22.8466 24.0096 23.3305 24.1774C23.5379 24.2497 23.6926 24.4866 23.6695 24.6971C23.6432 24.947 23.472 25.0129 23.2581 25.026C23.2153 25.0293 23.1724 25.0425 23.1033 25.0589C23.3404 25.3023 23.5971 25.3516 23.8769 25.2891C24.1534 25.2267 24.2753 25.0194 24.3312 24.7596C24.4431 24.2465 24.3411 23.7827 23.9559 23.4209C23.7485 23.2235 23.5083 23.0459 23.2548 22.9111C22.287 22.4078 21.273 22.0361 20.19 21.8684C19.3934 21.7467 18.5968 21.7631 17.8034 21.8388C17.8364 22.0953 17.8792 22.3289 17.889 22.5657C17.9022 22.842 17.8067 23.0854 17.5862 23.2696C17.2339 23.5656 16.5887 23.638 16.1805 23.4275C15.8514 23.2564 15.6933 22.9736 15.723 22.6117C15.7526 22.2927 15.9336 22.1348 16.2529 22.1578C16.7204 22.1907 16.8982 22.4144 16.8916 22.9801C17.1088 23.036 17.2504 22.9242 17.3525 22.7532C17.5236 22.4736 17.4907 22.1282 17.2669 21.875C16.9739 21.5428 16.5789 21.3816 16.1542 21.3586C15.6045 21.3158 15.0547 21.3092 14.5149 21.375C13.0072 21.5625 11.674 22.2006 10.4231 23.036C10.3638 23.0755 10.3079 23.1183 10.2387 23.1709C10.3671 23.2696 10.4659 23.3518 10.5679 23.4275C10.828 23.6248 10.9959 23.8748 10.9597 24.2136C10.8905 24.9207 10.3144 25.3549 9.60668 25.2431C9.31043 25.197 9.0767 24.9372 9.04707 24.6247C9.02075 24.3353 9.20179 24.0919 9.52771 23.9833C9.81739 23.8846 10.0314 23.9735 10.2157 24.2662C10.2585 24.3353 10.3013 24.4011 10.3441 24.4767C10.6206 24.2267 10.5317 23.7498 10.2091 23.6182C9.78776 23.4439 9.35324 23.4044 8.90223 23.4702C8.15828 23.582 7.56905 23.9768 7.0489 24.4899C6.07453 25.4437 5.38322 26.5818 4.88287 27.8415C4.85983 27.9073 4.84666 27.983 4.82032 28.0718Z" fill="#A183A6"/>
<path d="M11.4174 31.2127C11.3812 31.16 11.3515 31.1041 11.3088 31.0581C10.6504 30.3772 9.98543 29.703 9.33367 29.0155C9.01762 28.6833 8.69832 28.3478 8.42182 27.9827C8.23748 27.7426 8.14202 27.4433 8.36256 27.1538C8.55348 26.9039 8.88266 26.8019 9.24804 26.973C9.65298 27.1604 10.0217 27.4301 10.4035 27.667C10.4825 27.7163 10.5451 27.7854 10.624 27.8511C10.6537 27.8182 10.68 27.7952 10.6965 27.7689C11.0882 27.1801 11.5096 27.0256 12.1614 27.3084C12.5399 27.4729 12.9053 27.6933 13.2411 27.9367C13.8172 28.3609 14.3669 28.8215 14.9496 29.2852C13.8468 29.5352 13.7514 30.4232 13.623 31.2916C12.9383 31.4199 12.8625 31.5251 12.8856 32.3474C12.7342 32.3343 12.586 32.3112 12.4346 32.308C11.8947 32.2981 11.605 32.6171 11.7334 33.1401C11.8157 33.4756 11.9737 33.7946 12.1054 34.117C12.1515 34.2256 12.2206 34.3275 12.2766 34.4327C12.4906 34.834 12.3786 35.2715 11.9836 35.4919C11.4964 35.7649 10.9565 35.778 10.4134 35.7517C10.3739 35.7484 10.3311 35.7254 10.2982 35.7024C9.44888 35.1202 8.58642 34.5479 7.75358 33.9394C7.49679 33.7519 7.2993 33.4789 7.09846 33.2289C6.9635 33.0579 6.89111 32.8507 7.01288 32.6303C7.14128 32.4033 7.35525 32.3047 7.59555 32.3343C7.8556 32.3639 8.13214 32.4033 8.35925 32.5218C8.93861 32.8243 9.49827 33.173 10.0611 33.5085C10.3311 33.6697 10.5878 33.8572 10.8545 34.0282C10.9467 34.0874 11.0454 34.1532 11.1508 34.1762C11.2561 34.1992 11.3746 34.1762 11.4865 34.1762C11.4635 34.0742 11.4734 33.9459 11.4141 33.8703C11.2298 33.6368 11.0356 33.4098 10.8183 33.2059C10.0052 32.4362 9.17896 31.6863 8.36913 30.9134C8.09264 30.6502 7.84241 30.3542 7.60874 30.0516C7.48691 29.8937 7.38814 29.703 7.33219 29.5089C7.21698 29.1109 7.49348 28.7688 7.90498 28.7787C8.38558 28.7919 8.76745 29.0353 9.11639 29.328C9.84059 29.9397 10.5582 30.5581 11.2792 31.1732C11.312 31.1995 11.345 31.2258 11.3812 31.2488C11.3911 31.239 11.4042 31.2258 11.4174 31.2127Z" fill="#A183A6"/>
<path d="M22.6524 27.0719C22.7643 27.0719 22.8828 27.0489 22.9848 27.0785C23.0968 27.1114 23.2383 27.1771 23.2811 27.2692C23.314 27.3383 23.2219 27.4765 23.1659 27.5751C23.1396 27.6212 23.077 27.6508 23.0276 27.6837C21.734 28.5717 21.25 29.8085 21.6846 31.3379C21.9216 32.1832 22.2672 32.9957 22.5503 33.8278C22.9322 34.9395 23.2284 36.0678 23.212 37.2551C23.1956 38.4359 22.84 39.5049 22.0994 40.4358C21.1776 41.5902 20.2493 42.7382 19.321 43.8861C19.2091 44.0242 19.0873 44.1591 18.9589 44.2807C18.8898 44.3433 18.7877 44.3729 18.6989 44.4189C18.656 44.3334 18.61 44.2446 18.5738 44.1591C18.5606 44.1295 18.5606 44.0933 18.5606 44.0571C18.554 43.7117 18.475 43.419 18.0997 43.2809C18.024 43.2545 17.9812 43.1328 17.922 43.0539C18.001 43.0013 18.08 42.9421 18.1623 42.896C18.5013 42.7053 18.8799 42.5638 19.1794 42.3237C20.3415 41.4093 20.9933 40.1594 21.2204 38.732C21.3817 37.7254 21.1644 36.7091 20.8978 35.7191C20.6575 34.8244 20.2723 33.9923 19.8181 33.1832C19.1071 31.9201 18.9852 30.5913 19.4296 29.2033C19.7852 28.0916 21.4146 26.9798 22.6524 27.0719Z" fill="#A183A6"/>
<path d="M12.323 42.8266C12.4777 42.5503 12.7081 42.4122 12.9551 42.3365C13.699 42.1162 14.4528 41.932 15.1968 41.7116C15.5951 41.5932 16.0066 41.4781 16.3621 41.2708C17.1423 40.8169 17.3859 40.0769 17.3135 39.2118C17.2641 38.6461 17.2575 38.0869 17.4122 37.5343C17.5472 37.0542 17.7678 36.62 18.1364 36.2878C18.6763 35.8043 18.9133 35.1859 19.0582 34.505C19.1076 34.2748 19.2228 34.0577 19.3083 33.8373C19.3445 33.8406 19.3775 33.8439 19.4137 33.8472C19.4565 33.9393 19.5256 34.0314 19.5421 34.1301C19.7165 35.1135 19.9404 36.0904 20.0359 37.0805C20.1971 38.7448 19.5948 40.0933 18.2188 41.0965C17.5999 41.5471 17.0402 42.08 16.451 42.5701C16.3983 42.6128 16.3226 42.649 16.2568 42.6523C14.9861 42.7148 13.7155 42.774 12.4448 42.8332C12.4152 42.8431 12.3888 42.8365 12.323 42.8266ZM18.5381 39.202C18.9627 39.1987 19.2985 38.8632 19.3018 38.4389C19.305 38.008 18.9528 37.6626 18.5216 37.6659C18.1035 37.6692 17.7612 38.0146 17.7579 38.4323C17.7546 38.8632 18.1002 39.2053 18.5381 39.202Z" fill="#A183A6"/>
<path d="M12.7144 35.8373C12.8 36.6958 13.2411 37.2352 14.0312 37.4885C14.8838 37.7615 15.631 37.3438 15.8845 36.4886C16.003 36.0906 16.1544 35.6992 16.3289 35.3242C16.4935 34.9723 16.7766 34.7124 17.1124 34.5019C17.5008 34.2552 17.8662 33.9724 18.2415 33.706C18.3172 33.6534 18.3896 33.6007 18.5147 33.5152C18.5213 33.6534 18.5377 33.7421 18.5312 33.8277C18.4785 34.3276 18.3402 34.7979 18.0407 35.2091C17.7806 35.5676 17.5173 35.9262 17.2309 36.2649C16.5363 37.0839 16.2993 38.0411 16.3881 39.0804C16.431 39.5738 16.4672 40.008 15.9339 40.2678C15.8319 40.3172 15.7792 40.4685 15.6969 40.5836C15.631 40.5014 15.6146 40.4915 15.6146 40.4784C15.5257 39.6824 15.0517 39.2252 14.3735 38.8239C13.3597 38.2187 12.4215 37.4852 11.4504 36.8043C11.3812 36.755 11.3187 36.6925 11.2759 36.6201C11.2364 36.5544 11.2331 36.4689 11.2133 36.3899C11.2825 36.3735 11.3516 36.3406 11.4207 36.3439C11.9112 36.3603 12.1186 36.2847 12.7144 35.8373Z" fill="#A183A6"/>
<path d="M13.642 32.8279C13.5959 32.6535 13.5696 32.5483 13.5367 32.4463C13.4807 32.2753 13.5531 32.1996 13.721 32.2095C13.8066 32.2128 13.8889 32.2358 13.9712 32.2588C14.3925 32.374 14.6427 32.1273 14.5736 31.6931C14.5341 31.43 14.4913 31.1438 14.544 30.8905C14.7579 29.8578 15.7883 29.4631 16.6541 30.0551C17.375 30.5485 17.4277 30.7623 17.0985 31.5615C16.7792 32.3312 16.1537 32.7457 15.4295 33.0515C15.0608 33.2094 14.6855 33.3508 14.3168 33.5054C13.9284 33.6699 13.6255 33.9297 13.4346 34.3178C13.2865 34.6171 13.1351 34.627 12.9573 34.3442C12.8059 34.1073 12.6808 33.8541 12.5623 33.6008C12.4635 33.3837 12.4207 33.1502 12.582 32.9463C12.7565 32.7259 13.0067 32.7193 13.2601 32.7555C13.3688 32.7654 13.4708 32.7917 13.642 32.8279Z" fill="#A183A6"/>
<path d="M18.5176 31.43C18.5307 31.6175 18.5768 31.8083 18.5571 31.9925C18.4814 32.6273 18.1917 33.147 17.6354 33.4824C17.3654 33.6436 17.079 33.7785 16.7893 33.9002C16.2857 34.114 15.8643 34.4199 15.5878 34.8935C15.4693 35.0942 15.4166 35.3309 15.3442 35.5546C15.2652 35.798 15.2257 36.0546 15.1203 36.2848C14.9327 36.6927 14.5904 36.8275 14.1394 36.719C13.751 36.6269 13.481 36.2848 13.4843 35.877C13.4876 35.4099 13.672 35.0152 13.988 34.6797C14.518 34.1238 15.1928 33.8212 15.9104 33.6107C16.6577 33.3904 17.3127 33.0187 17.8263 32.4332C18.0106 32.2227 18.1193 31.9431 18.2575 31.6931C18.3069 31.6043 18.3464 31.5057 18.3925 31.4136C18.4353 31.4201 18.4748 31.4234 18.5176 31.43ZM14.6891 35.7816C14.6924 35.5579 14.5509 35.4066 14.3698 35.4198C14.1822 35.4329 14.0703 35.5382 14.0604 35.7289C14.0505 35.9066 14.2085 36.0645 14.383 36.0513C14.5706 36.0414 14.676 35.9362 14.6891 35.7816Z" fill="#A183A6"/>
<path d="M40.6158 47.4191C40.201 47.4191 39.8554 47.2809 39.5755 47.0079C39.2957 46.735 39.1575 46.383 39.1575 45.9522C39.1575 45.5213 39.2957 45.1693 39.5755 44.8963C39.8554 44.6233 40.201 44.4852 40.6158 44.4852C41.0701 44.4852 41.4289 44.6727 41.6922 45.0476L41.3927 45.2121C41.3104 45.0904 41.1985 44.9917 41.0602 44.9161C40.9219 44.8404 40.7705 44.8009 40.6125 44.8009C40.2998 44.8009 40.0397 44.9095 39.8323 45.1266C39.6249 45.3436 39.5196 45.6199 39.5196 45.9554C39.5196 46.2909 39.6249 46.5639 39.8323 46.781C40.0397 46.9981 40.2998 47.1066 40.6125 47.1066C40.7705 47.1066 40.9219 47.0704 41.0602 46.9948C41.1985 46.9192 41.3104 46.8205 41.3927 46.6955L41.6956 46.86C41.4223 47.2316 41.0635 47.4191 40.6158 47.4191Z" fill="#A183A6"/>
<path d="M46.1361 47.3659H44.2762V44.5307H46.1361V44.8464H44.6283V45.7608H46.1064V46.0766H44.6283V47.0535H46.1361V47.3659Z" fill="#A183A6"/>
<path d="M49.883 47.3659H49.5304V44.8432H48.6319V44.5307H50.7847V44.8464H49.883V47.3659Z" fill="#A183A6"/>
<path d="M53.3812 44.5307H53.7338V45.6589H54.5205C54.7936 45.6589 55.0079 45.7411 55.1689 45.9056C55.3304 46.07 55.4094 46.274 55.4094 46.5141C55.4094 46.7542 55.3304 46.9581 55.1723 47.1225C55.0143 47.287 54.797 47.3693 54.5205 47.3693H53.3783V44.5307H53.3812ZM54.4775 45.9713H53.7338V47.0502H54.4775C54.6454 47.0502 54.7807 47.0009 54.8859 46.8989C54.9911 46.7969 55.0439 46.6686 55.0439 46.5108C55.0439 46.3529 54.9911 46.2213 54.8859 46.1226C54.7807 46.024 54.6454 45.9713 54.4775 45.9713Z" fill="#A183A6"/>
<path d="M62.2894 47.3659H61.9368V44.8432H61.0385V44.5307H63.1911V44.8464H62.2894V47.3659Z" fill="#A183A6"/>
<path d="M68.2178 47.3659H67.8128L67.5625 46.7377H66.1501L65.9002 47.3659H65.4953L66.6375 44.5307H67.0755L68.2178 47.3659ZM67.4538 46.422L66.8548 44.8958L66.2489 46.422H67.4538Z" fill="#A183A6"/>
<path d="M71.0563 47.3662H70.717V44.5309H71.0691V46.7478L72.7022 44.5309H73.0642V47.3662H72.7121V45.1032L71.0563 47.3662ZM72.6361 43.9948C72.4519 44.2447 72.2049 44.3697 71.8924 44.3697C71.5827 44.3697 71.3328 44.2447 71.1417 43.9948L71.2998 43.8599C71.4479 44.0639 71.6454 44.1658 71.8924 44.1658C72.1427 44.1658 72.3368 44.0639 72.478 43.8599L72.6361 43.9948Z" fill="#A183A6"/>
<path d="M77.2015 47.4191C76.7867 47.4191 76.441 47.2809 76.161 47.0079C75.8815 46.735 75.7432 46.383 75.7432 45.9522C75.7432 45.5213 75.8815 45.1693 76.161 44.8963C76.441 44.6233 76.7867 44.4852 77.2015 44.4852C77.6558 44.4852 78.0143 44.6727 78.278 45.0476L77.9783 45.2121C77.8958 45.0904 77.7842 44.9917 77.6459 44.9161C77.5077 44.8404 77.356 44.8009 77.198 44.8009C76.8854 44.8009 76.6252 44.9095 76.4178 45.1266C76.2104 45.3436 76.1052 45.6199 76.1052 45.9554C76.1052 46.2909 76.2104 46.5639 76.4178 46.781C76.6252 46.9981 76.8854 47.1066 77.198 47.1066C77.356 47.1066 77.5077 47.0704 77.6459 46.9948C77.7842 46.9192 77.8958 46.8205 77.9783 46.6955L78.281 46.86C78.0079 47.2316 77.6459 47.4191 77.2015 47.4191Z" fill="#A183A6"/>
<path d="M83.0153 47.3659H82.5773L81.5007 46.0898L81.2143 46.4121V47.3659H80.8622V44.5307H81.2143V45.9976L82.4686 44.5307H82.9096L81.7279 45.8793L83.0153 47.3659Z" fill="#A183A6"/>
<path d="M85.8889 47.3659H85.5496V44.5307H85.9022V46.7476L87.5348 44.5307H87.8968V47.3659H87.5447V45.103L85.8889 47.3659Z" fill="#A183A6"/>
<path d="M93.0785 47.3659H92.6543L91.7486 46.1588L90.8435 47.3659H90.4124L91.5151 45.9121L90.4716 44.5307H90.9027L91.7457 45.6655L92.5852 44.5307H93.0163L91.9793 45.9089L93.0785 47.3659Z" fill="#A183A6"/>
<path d="M100.162 47.4191C99.7472 47.4191 99.4015 47.2809 99.122 47.0079C98.842 46.735 98.7037 46.383 98.7037 45.9522C98.7037 45.5213 98.842 45.1693 99.122 44.8963C99.4015 44.6233 99.7472 44.4852 100.162 44.4852C100.616 44.4852 100.975 44.6727 101.239 45.0476L100.939 45.2121C100.857 45.0904 100.745 44.9917 100.606 44.9161C100.468 44.8404 100.317 44.8009 100.159 44.8009C99.8459 44.8009 99.5862 44.9095 99.3788 45.1266C99.1713 45.3436 99.0657 45.6199 99.0657 45.9554C99.0657 46.2909 99.1713 46.5639 99.3788 46.781C99.5862 46.9981 99.8459 47.1066 100.159 47.1066C100.317 47.1066 100.468 47.0704 100.606 46.9948C100.745 46.9192 100.857 46.8205 100.939 46.6955L101.242 46.86C100.968 47.2316 100.61 47.4191 100.162 47.4191Z" fill="#A183A6"/>
<path d="M106.189 47.3659H105.837V44.8432H104.178V47.3659H103.826V44.5307H106.193V47.3659H106.189Z" fill="#A183A6"/>
<path d="M111.411 47.3659H111.006L110.756 46.7377H109.343L109.093 47.3659H108.688L109.831 44.5307H110.268L111.411 47.3659ZM110.65 46.422L110.051 44.8958L109.445 46.422H110.65Z" fill="#A183A6"/>
</g>
<defs>
<clipPath id="clip0">
<rect width="120" height="31.5789" fill="white" transform="translate(0 19)"/>
</clipPath>
</defs>
</svg>
